<?xml version="1.0" encoding="utf-8"?>
<!-- Generator: Adobe Illustrator 27.5.0, SVG Export Plug-In . SVG Version: 6.00 Build 0)  -->
<svg version="1.1" xmlns="http://www.w3.org/2000/svg" xmlns:xlink="http://www.w3.org/1999/xlink" x="0px" y="0px"
	 viewBox="0 0 750 500" style="enable-background:new 0 0 750 500;" xml:space="preserve">
<g id="BACKGROUND">
	<g>
		<rect y="0" style="fill:#FFFFFF;" width="750" height="500"/>
	</g>
</g>
<g id="OBJECTS">
	<g>
		<g style="opacity:0.15;">
			<linearGradient id="SVGID_1_" gradientUnits="userSpaceOnUse" x1="332.2363" y1="130.5352" x2="332.2363" y2="379.9501">
				<stop  offset="0" style="stop-color:#8AB9FD"/>
				<stop  offset="1" style="stop-color:#0056E9"/>
			</linearGradient>
			<path style="fill:url(#SVGID_1_);" d="M334.497,170.242c3.043,0,6.357,1.129,6.823,2.481c0.679,1.986,1.221,3.734-1.847,5.681
				c-3.067,1.958-2.952,1.587-6.311,1.978c-2.412,0.297-4.753,0.892-6.349,0.892c-0.615,0-1.121-0.089-1.477-0.317
				c-1.296-0.822-1.7-4.085-2.319-6.519c-0.635-2.427-0.623-2.26,0.99-2.743c0.152-0.045,0.288-0.066,0.41-0.066
				c0.501,0,0.789,0.337,1.128,0.675c0.315,0.327,0.69,0.654,1.361,0.654c0.231,0,0.498-0.039,0.809-0.13
				c2.366-0.65,3.037-1.728,3.073-1.785C331.762,170.48,333.1,170.242,334.497,170.242z"/>
			
				<linearGradient id="SVGID_00000003072508289633630530000014130513863358022330_" gradientUnits="userSpaceOnUse" x1="504.0543" y1="130.5352" x2="504.0543" y2="379.9505">
				<stop  offset="0" style="stop-color:#8AB9FD"/>
				<stop  offset="1" style="stop-color:#0056E9"/>
			</linearGradient>
			<path style="fill:url(#SVGID_00000003072508289633630530000014130513863358022330_);" d="M682.771,298.948
				c-0.18,0.327-0.393,0.737-0.638,1.244c-1.064,2.259-1.539,3.274-2.57,3.454c-0.95,0-0.36-1.211-1.179-2.046
				c-0.867-0.867-1.572-3.962-2.063-5.664c-0.491-1.735-1.293-4.027-1.964-5.009c-0.786-0.376-0.966,0.638-1.293,1.752
				c-0.246,0.835-0.115,1.506,0.147,2.194c0.18,0.54,0.458,1.064,0.655,1.686c0.36,1.097,0.18,1.703-0.246,2.063
				c-0.115,0.098-0.278,0.18-0.426,0.245c-0.999-0.245-1.26-0.344-1.637-0.344c-1.915,0.098-1.899-0.344-3.192-0.917
				c-1.621-0.704-0.622-1.293-1.473-1.342c-0.36,0-0.835,0.196-1.342,0.426c-0.491,0.213-1.015,0.426-1.539,0.426
				c-1.981-0.737-1.915-3.814-2.898-5.058c-0.638-0.769-1.244-0.884-1.948-0.884c-2.635,0-2.815,1.375-2.799,3.699
				c0,0.344,0.033,0.639,0.098,0.868c0.311,1.26,1.244,0.818,1.293,1.637c0.049,0.475-0.049,1.26-0.262,2.194
				c-0.196,0.884-0.508,1.899-0.917,2.898c-0.802,2.03-2.865,2.259-3.716,4.387c-0.835,2.112-1.293,3.732-3.078,3.863
				c-0.606,0-0.917-0.18-1.064-0.556c-0.229-0.557-0.082-1.522,0.016-2.816v-0.033c0.016-0.262,0.033-0.556,0.033-0.835
				c0.082-2.799-0.474-5.009-1.228-7.956c-0.082-0.393-0.147-0.802-0.18-1.228c-0.295-2.946,0.556-6.744,0.966-7.383
				c0.491-0.753,2.914-1.178,4.485-2.406c0.262-0.213,0.475-0.409,0.639-0.622c0.9-1.081,0.655-2.259-0.606-3.323
				c-1.506-1.293-1.833-1.293-2.57-3.438c-0.688-1.932-0.606-3.962-1.604-3.962c-1.457,0.508-0.966,1.031-0.524,2.93
				c0.065,0.295,0.131,0.606,0.196,0.949c0.197,1.162,0.066,1.506-0.229,1.604c-0.376,0.147-1.064-0.131-1.719,0.54
				c-0.294,0.295-0.688,0.458-1.113,0.458c-1.146,0-2.635-1.031-3.798-2.456c-1.588-1.965-0.851-3.814-2.619-5.828
				c-1.735-1.932-7.825-7.203-9.986-7.203c-2.177,0.393-1.408,1.473-2.75,1.964c-1.375,0.54-2.095,0.262-0.72,2.619
				c0.049,0.082,0.098,0.18,0.147,0.262c1.408,2.325,4.01,5.762,5.746,8.512c0.638,1.064,1.015,1.392,1.293,1.392
				c2.505-0.671,1.784,1.391,2.537,8.087c0.409,3.503,0.524,5.468,0.409,7.088c-0.065,1.441-0.311,2.603-0.655,4.355
				c-0.622,3.34-2.718,6.81-1.85,8.938c0.098,0.246,0.229,0.475,0.409,0.671c1.752,1.981,2.685,3.52,1.866,5.369
				c0,0-0.016,0.016-0.016,0.033c-0.508,1.129-1.097,1.506-1.604,1.506c-0.344,0-0.638-0.164-0.868-0.409
				c-0.18-0.196-0.475-0.278-0.769-0.278c-0.704,0-1.506,0.524-1.31,1.784c0.278,1.768-1.293,2.014-3.405,3.978
				c-2.095,1.964-0.802,1.833-1.064,3.929c-0.033,0.344-0.082,0.638-0.115,0.884c0,0.016,0,0.016,0,0.016
				c-0.278,1.26-0.753,1.408-1.997,2.292c-0.557,0.409-0.982,0.557-1.391,0.557c-0.688,0-1.375-0.393-2.75-0.622
				c-2.194-0.377-0.311-1.539-1.653-1.997c-2.439,0.082-2.881-0.115-3.339-0.998c-1.064-1.965-1.326-3.143-2.898-3.209
				c-1.588,0-1.31,2.177-2.603,2.603c-0.688,0.229-1.031,0.606-1.342,0.606c-0.262,0-0.508-0.295-0.933-1.261
				c-0.082-0.18-0.147-0.377-0.196-0.557c-0.524-1.981,0.393-4.256,1.031-5.566c0.278-0.606,0.867-0.753,1.539-0.753
				c0.327,0,0.704,0.033,1.081,0.066c0.377,0.049,0.769,0.082,1.129,0.082c0.328,0,0.622-0.033,0.917-0.115
				c0.671-0.164,0.9-0.246,1.048-0.246c0.18,0,0.164,0.164,0.884,0.426c1.146,0.442,1.326,1.26,3.307,1.26
				c1.162-0.049,1.653-0.065,2.03-0.065c3.7-0.033,3.864-0.213,5.288-3.634c0.016,0,0.016-0.033,0.033-0.033
				c1.408-3.372,0.147-1.555,0-2.652c-0.065-0.508-0.18-0.868-0.278-1.293c-0.098-0.524-0.164-1.179-0.033-2.374
				c0.213-2.112,0.622-1.179,1.752-2.259c1.13-1.064,1.883-1.981,2.21-3.618c0.328-1.621-0.016-1.965,0.229-4.551
				c0.229-2.619,0.737-2.505,1.31-4.797c0.016-0.049,0.033-0.082,0.033-0.131c0.524-2.145,0.376-2.897-0.72-2.897
				c-1.343,0.049-0.72,2.324-2.128,4.502c-1.392,2.145-1.997,1.277-3.913,4.551c-0.982,1.686-2.03,2.112-3.258,2.112
				c-1.146,0-2.455-0.377-4.027-0.442c-0.425-0.016-0.786-0.016-1.096-0.016c-2.03,0-1.654,0.327-2.914,0.376
				c-1.457,0.049-1.768,1.146-1.359,3.454v0.065c0.197,1.113,0.115,1.817,0,2.587c0,0.016,0,0.016,0,0.033
				c-0.147,0.753-0.327,1.604-0.393,2.979c-0.114,2.799-0.327,1.293-1.899,3.438c-0.835,1.146-1.277,1.44-1.883,1.44
				c-0.523,0-1.178-0.229-2.341-0.311c-0.475-0.049-0.802-0.131-1.031-0.229c-0.9-0.426,0.082-1.392,0.016-2.93
				c-0.098-1.817,0.786-1.604,1.899-3.847c0.065-0.131,0.115-0.262,0.18-0.409c1.228-2.685-0.54-1.948-1.85-3.34
				c-0.017-0.016-0.049-0.049-0.065-0.065c-1.212-1.277-0.622-0.786,0.475-3.913c0.033-0.066,0.049-0.164,0.082-0.246
				c1.179-3.503-0.262-1.981-1.457-2.668c-1.211-0.688-2.079-0.802-2.815-2.636c-0.72-1.833,1.064-2.079-0.835-2.357
				c-2.03-0.033-2.718,1.506-3.814,4.273c-0.54,1.375-0.344,1.866,0.197,2.21c0.622,0.393,1.686,0.606,2.57,1.768
				c1.621,2.128,1.048,0.868,0.196,2.586c-0.033,0.082-0.065,0.147-0.098,0.196c-0.278,0.426-0.589,0.524-0.917,0.524
				c-1.522-0.098-1.981,0.049-2.39,0.688c-0.573,0.884-0.475,1.801-0.131,2.914c0.344,1.13,0.982,2.439,1.441,4.125
				c0.589,2.128,0.671,2.652,0.246,3.618c-0.246,0.54-0.655,1.228-1.212,2.423c-1.539,3.274-2.095,3.716-3.667,4.927
				c-1.555,1.195-3.863,1.195-5.156,1.637c-1.211,0.393-2.308,1.064-4.371,1.064c-2.75-0.115-6.875-1.228-9.167-2.194
				c-0.409-0.164-0.72-0.246-0.966-0.246c-1.13,0-0.753,1.686-1.342,3.323c-0.688,1.965-1.261,2.063-3.192,2.161
				c-0.59,0-0.933-0.164-1.13-0.458c-0.475-0.671-0.147-1.997,0.147-3.405c0.262-1.277,1.031-1.604,1.588-1.948
				c0.377-0.229,0.655-0.458,0.638-0.949c-0.033-1.064,0.769-1.752-0.606-1.752c-0.278,0-0.671,0.033-1.211,0.098
				c-2.963,0.36-4.404,2.554-3.585,4.436c0.033,0.098,0.082,0.197,0.115,0.311c0.655,1.768,0.54,3.831,1.26,7.252
				c0.065,0.344,0.115,0.622,0.147,0.884c0.098,0.835,0,1.277-0.196,1.588c-0.409,0.589-1.244,0.688-1.801,2.227
				c-0.95,2.554-1.883,2.603-3.29,3.372c-0.966,0.213-1.13,0.033-1.343-0.147c-0.213-0.18-0.508-0.36-1.064-0.36
				c-2.39,0.311-1.113,0.999-2.554,1.588c-0.409,0.164-0.786,0.229-1.146,0.229c-0.769,0-1.424-0.311-1.899-0.753
				c-0.082-0.082-0.147-0.147-0.229-0.246c-0.671-0.737-0.327-1.178,0.524-3.094c0.016-0.033,0.033-0.065,0.049-0.098
				c0.9-2.013-0.016-1.948-0.933-4.518c0-0.016-0.016-0.016-0.016-0.033c-0.884-2.537-0.295-2.521-0.868-3.389
				c-0.802-0.278-1.277,0.851-2.014,1.702c-0.425,0.524-0.917,0.982-1.309,1.621c-0.442,0.688-0.737,1.604-0.606,2.996
				c0.016,0.311,0.049,0.622,0.082,0.933c0.278,2.504,0.851,5.599,1.408,7.301c0.589,1.801,0.327,1.179-0.196,2.046
				c-0.033,0.049-0.065,0.115-0.098,0.18c-0.54,1.162-0.377,2.324-0.95,4.272c-0.557,1.915-0.344,1.408-1.768,1.784
				s-0.917,0.671-1.555,2.832c-0.245,0.851-0.049,1.31,0.262,1.621c0.491,0.475,1.277,0.655,1.293,1.49
				c0.016,0.72-0.196,1.179-0.622,1.686c-0.393,0.458-0.917,0.966-1.604,1.768c-1.424,1.637-1.506,0.95-0.409,1.604
				c0.262,0.147,0.54,0.36,0.819,0.622c0.933,0.802,1.899,2.063,2.75,3.061c1.113,1.293,1.113,0.376,3.176,1.539
				c2.063,1.162,1.293,0.884,1.784,2.063c0.327,0.802,0.196,1.195-0.213,1.915v0.017c-0.213,0.36-0.491,0.769-0.802,1.359
				c-0.508,0.933-0.819,1.211-1.146,1.211c-0.311,0-0.605-0.229-1.064-0.491c-0.966-0.507-2.243-1.637-2.767-2.226
				c-0.54-0.59-0.72-1.195-2.586-1.85c-1.866-0.655-2.472-2.259-3.569-3.405c-0.197-0.197-0.344-0.377-0.442-0.524
				c-0.377-0.573-0.295-0.999-0.131-1.883c0.065-0.327,0.115-0.72,0.18-1.228c0.279-2.21-0.147-0.688-1.375-2.717
				c-0.72-1.162-1.146-3.029-1.31-4.715c-0.131-1.228-0.098-2.341,0.066-3.045c0.164-0.688,0.344-1.211,0.491-1.719
				c0.196-0.704,0.278-1.408,0.016-2.521c-0.016-0.065-0.033-0.147-0.049-0.213c-0.016-0.115-0.033-0.229-0.049-0.328
				c-0.196-1.342,0.36-1.342-0.082-3.061c-0.393-1.457-1.015-3.732-1.735-5.156c-0.213-0.442-0.442-0.802-0.688-1.031
				c-0.982-0.949,1.539-2.472,3.127-2.472c1.653,0.065,2.554,0.835,3.34,2.914c0.753,2.046,0.655,2.684,0.851,3.863
				c0.524,0.197,1.342-0.786,1.768-1.817c0.196-0.458,0.311-0.917,0.294-1.293c-0.016-0.933-0.507-1.85-0.786-2.849
				c-0.18-0.573-0.295-1.179-0.213-1.817c0.164-1.67,0.9-0.982,1.375-2.783c0.033-0.098,0.065-0.229,0.098-0.344
				c0.474-2.226,1.146-3.339,2.586-7.399c0.213-0.557,0.344-1.048,0.458-1.49c0.671-2.881-0.491-3.716-1.62-4.191
				c-1.146-0.475-1.801,0.196-2.276-1.097c-0.065-0.18-0.131-0.393-0.18-0.655c-0.344-1.506,0.589-2.815,1.015-4.338
				c0.115-0.442,0.213-0.884,0.213-1.359c0-0.295-0.033-0.606-0.115-0.917c-0.622-2.636-1.408-7.056-2.701-8.136
				c-1.293-1.097-4.141-1.424-6.482-1.506c-2.243-0.016-1.064,1.13-2.816,2.341c-1.817,1.26-4.158,1.572-6.777,1.964
				c-2.619,0.409-0.72,0.688-2.521,1.621c-0.557,0.311-0.982,0.393-1.342,0.393c-1.555-0.115-1.981-0.033-2.554,0.262
				c-1.882,0.933-0.573,3.7-1.571,5.353c-0.999,1.637-1.441,0.54-1.997,2.603c-0.213,0.786-0.066,1.408,0.246,1.948
				c0.524,0.867,1.506,1.49,2.227,2.063c0.769,0.622,0.376,1.473-0.049,2.652c-0.229,0.605-0.458,1.293-0.54,2.079
				c-0.213,2.292-0.982,2.259-3.012,2.456c-1.572,0.017-2.341-1.375-2.603-3.11c-0.082-0.54-0.115-1.113-0.115-1.703
				c0-0.966,0.229-1.506,0.458-1.915c0.393-0.638,0.786-0.9,0.409-1.932c-0.197-0.573-0.344-0.786-0.508-0.786
				c-0.327,0-0.671,0.917-1.457,1.654c-0.393,0.376-0.655,0.606-0.9,0.606c-0.475,0-0.819-0.884-1.702-3.143
				c-0.36-0.917-0.573-1.637-0.688-2.242c-0.328-1.686,0.065-2.554,0.147-4.24c0.017-0.295,0.033-0.54,0.049-0.786
				c0.115-1.719,0.278-2.538-0.786-5.615c-0.442-1.228-0.737-1.915-0.917-2.39c-0.376-0.917-0.344-1.081,0.016-2.816
				c0.246-1.097,0.557-2.226,0.737-3.258c0.262-1.457,0.295-2.701-0.458-3.356c-0.344-0.278-0.622-0.376-0.9-0.376
				c-1.817,0.295-2.226,0.164-2.75-0.295c-1.719-1.44-3.454-4.944-3.618-7.759c-0.18-2.848-0.18-2.947-1.768-3.994
				c-0.409-0.262-0.786-0.36-1.211-0.36c-0.475,0-0.966,0.131-1.539,0.246c-0.557,0.115-1.179,0.229-1.915,0.229
				c-0.475,0-0.982-0.049-1.539-0.164c-3.143-0.688-2.865-0.786-4.649-1.408c-1.784-0.655-1.408-1.85-2.717-3.781
				c-1.326-1.964-2.619-2.128-5.795-3.389c-3.192-1.26-3.192-0.688-5.73-2.505c-2.57-1.801-2.374-3.618-3.176-5.615
				c-0.409-1.031-2.521-1.146-2.979-0.131c-0.606,1.326-0.327,1.768,0.164,2.456c0.311,0.426,0.688,0.966,0.966,1.833
				c0.524,1.621,0.164,1.948,0.065,2.93c-0.049,0.409-0.033,0.933,0.098,1.702c0,0.066,0.016,0.147,0.033,0.213
				c0.295,1.441,0.868,1.768,2.227,1.768c0.818,0,1.915-0.115,3.389-0.164c3.814-0.033,2.505,0.802,5.222,1.326
				c0.589,0.131,0.982,0.164,1.26,0.164c0.9-0.115,1.064,0.082,2.095,0.982c2.21,1.981,1.653,2.832,2.979,5.075
				c0.818,1.375,0.491,1.833-0.164,2.39c-0.393,0.328-0.917,0.688-1.375,1.342c-1.162,1.686-3.912,5.091-6.581,6.008
				c-2.635,0.917-4.96,1.506-8.676,1.572c-3.7,0.049-2.423,1.686-6.515,1.833c-2.079,0-3.438-0.213-4.633-0.409
				c-1.228-0.229-2.308-0.426-3.192-0.426c-0.491,0-0.933,0.066-1.31,0.245c-1.702,0.868-3.045,1.441-2.456,3.127
				c0.147,0.426,0.213,0.72,0.262,0.933c0.147,0.638,0.065,0.573,0.851,0.982c0.736,0.426,2.848,0.557,4.796,0.557
				c0.753,0,1.489-0.033,2.112-0.065c1.735-0.066,2.521-1.506,3.356-1.506c0.246,0,0.491,0.131,0.77,0.442
				c1.228,1.391,1.555,0.622,2.39,2.848c0.328,0.868,0.246,1.473-0.229,2.145c-0.737,1.048-2.521,2.226-5.369,4.698
				c-4.616,3.961-2.914,3.601-6.057,4.551c-3.11,0.933-2.456,0.557-5.697,1.621c-3.241,1.048-6.483,4.96-8.971,6.941
				c-2.456,1.932-3.29,3.945-2.619,5.992c0,0.016,0.016,0.016,0.016,0.033c0.262,0.737,0.327,1.997,0.295,3.438
				c0,0.327-0.016,0.688-0.016,1.048c-0.082,2.308-0.311,4.895-0.393,6.597c-0.147,3.029-0.033,3.029-1.899,5.615
				c-1.342,1.85-2.177,2.341-3.618,2.341c-0.54,0-1.179-0.066-1.948-0.18c-0.327-0.017-0.589-0.049-0.835-0.049
				c-1.85,0-1.44,1.179-3.11,3.127c-1.866,2.161-1.129,4.747-1.833,7.039c-0.688,2.275-2.505,2.095-3.978,2.275
				c-1.473,0.164-0.213,3.634-1.588,4.927c-1.342,1.293-3.323,3.47-5.582,4.273c-2.259,0.802-1.833,1.49-4.371,2.488
				c-2.063,0.819-3.487,1.588-6.057,1.588c-0.59,0-1.261-0.049-1.981-0.131c-3.961-0.475-4.043-0.704-5.124-2.046
				c-0.131-0.18-0.246-0.344-0.311-0.508c-0.311-0.622-0.18-1.129-0.065-1.964c0.065-0.573,0.131-1.31,0.033-2.341
				c-0.246-2.93-2.227-5.959-3.438-7.383c-1.195-1.441-1.129-5.598-1.162-7.596c0-1.997-1.441-3.372-3.241-5.222
				c-1.637-1.686-1.473-2.423-1.735-4.043c-0.033-0.197-0.065-0.393-0.115-0.606c-0.426-2.095,1.015-3.618,0.851-5.091
				c-0.131-1.375,2.488-2.619,3.651-3.552c0.115-0.098,0.213-0.18,0.311-0.278c0.507-0.54,0.54-0.999,0.278-1.539
				c-0.196-0.426-0.606-0.9-1.08-1.49c-1.081-1.31-0.933-5.369-1.293-7.203c-0.344-1.801-0.016-2.324-1.228-3.47
				c-1.113-1.064-3.962-4.42-4.715-5.91c-0.066-0.131-0.098-0.229-0.131-0.311c-0.426-1.277,0.376-3.258,0.819-4.174
				c0.426-0.884,0.9,0.082,1.44-1.392c0.033-0.065,0.065-0.147,0.082-0.229c0.573-1.801-0.376-4.092-2.063-4.224
				c-0.933-0.016-1.768,0.246-2.603,0.508c-0.819,0.246-1.604,0.475-2.243,0.475c-1.801-0.72-1.997-2.374-3.045-4.469
				c-0.491-1.015-1.015-1.244-1.801-1.244c-0.311,0-0.688,0.049-1.113,0.082c-0.409,0.049-0.9,0.098-1.457,0.098
				c-0.311,0-0.638-0.016-0.998-0.049c-0.458-0.049-0.835-0.065-1.13-0.065c-1.703,0-0.819,0.671-1.408,1.883
				c-0.687,1.408-2.161,1.277-3.798,2.783c-0.442,0.409-0.868,0.557-1.31,0.557c-1.162,0-2.406-1.081-4.256-1.26
				c-1.44-0.017-2.636,0.426-3.765,0.867c-1.13,0.442-2.243,0.868-3.209,0.868c-2.815-0.589-8.562-4.649-9.986-5.402
				c-1.408-0.753-2.341-4.109-4.747-6.384c-2.423-2.292-3.536-1.621-4.289-3.781c-0.491-1.424-0.966-2.292-1.179-3.372v-0.033
				c-0.098-0.557-0.131-1.162-0.065-1.948c0.115-1.49,0.36-2.586,0.458-3.929c0.065-0.753,0.098-1.604,0.016-2.619
				c-0.196-2.799-1.981-5.386-1.981-7.023v-0.033c0.033-0.655,0.819-2.75,1.932-5.222c0.491-1.081,1.048-2.226,1.637-3.34
				c1.588-3.143,3.405-6.122,4.666-7.039c2.537-1.817,5.157-2.652,5.926-3.994c0.065-0.115,0.131-0.229,0.163-0.36
				c0.328-1.129-0.327-2.341-0.327-3.454v-0.065c0.017-0.442,0.131-0.868,0.458-1.277c0.491-0.639,1.113-1.555,1.768-2.406
				c0.868-1.097,1.834-2.063,2.816-2.161c0.851-0.016,1.195,0.147,1.572,0.311c0.376,0.147,0.802,0.311,1.539,0.311
				c0.393,0,0.9-0.049,1.522-0.164c3.159-0.606,3.159-0.442,9.855-1.113c6.712-0.671,10.412-4.927,15.454-4.387
				c0.868,0.098,1.588,0.131,2.226,0.131c1.244,0,2.079-0.131,2.767-0.278c0.655-0.131,1.146-0.278,1.686-0.278
				c0.393,0,0.818,0.082,1.342,0.278c2.308,0.966,1.392,0.393,2.243,2.75c0.213,0.589,0.295,0.999,0.278,1.31
				c-0.016,0.999-0.802,1.195-0.851,2.914c-0.016,0.557,0.082,0.966,0.278,1.277c0.59,0.9,2.161,0.851,4.469,1.211
				c3.077,0.442,2.996-0.197,5.647,2.194c2.636,2.341,3.962,3.831,6.826,5.075c0.426,0.18,0.786,0.262,1.13,0.262
				c2.03,0,2.783-2.898,3.569-4.518c0.655-1.359,1.031-1.882,2.783-1.882c0.655,0,1.539,0.065,2.701,0.213
				c4.207,0.508,1.539,2.783,3.388,3.831c1.883,1.048,3.389,2.079,8.251,2.292c1.637,0.066,2.423,0.066,2.914,0.066
				c0.982,0,0.753,0,3.52,0.54c3.749,0.737,8.66-0.246,10.69-3.34c0.704-1.08,1.097-1.866,1.31-2.505v-0.016
				c0.393-1.228,0.098-1.964-0.115-3.29c-0.18-0.917-0.557-1.244-1.13-1.244c-0.688,0-1.637,0.442-2.881,0.835
				c-2.275,0.18-2.406-1.326-2.897-3.274c-0.049-0.213-0.082-0.426-0.082-0.606c0-0.033,0-0.066,0.016-0.082
				c0.049-1.866,2.439-2.848,3.012-4.469c1.08-0.737,7.678-3.405,8.021-3.405c1.13,0,1.965,2.603,4.944,4.993
				c1.277,1.031,2.03,1.457,2.586,1.457c0.638,0,1.686-2.095,2.063-4.174c0.262-1.44,0.213-2.881-0.508-3.618
				c-1.784-1.768-2.357-3.994-6.859-5.566c-1.179-0.409-2.014-0.54-2.685-0.54c-0.622,0-1.081,0.098-1.523,0.213
				c-0.425,0.115-0.835,0.229-1.342,0.229c-0.557,0-1.211-0.147-2.194-0.605c-3.618-1.735-1.408-2.292-4.928-4.011
				c-0.786-0.376-1.408-0.54-1.981-0.54c-1.965,0-2.898,1.948-5.108,2.783c-2.39,0.917-2.456,3.765-2.292,6.352c0,0,0,0,0,0.016
				c0.033,0.458,0.082,0.917,0.115,1.359c0.229,2.865,4.911,2.587,6.286,4.142c0.377,0.426,0.557,0.851,0.573,1.244v0.065
				c0,0.999-0.966,1.932-1.883,2.963c-1.277,1.408-6.81,4.076-7.35,2.193c-0.818-2.816-3.372-5.107-3.749-7.039
				c-0.393-1.932-0.851-2.128-3.913-2.439c-0.557-0.049-0.999-0.082-1.342-0.082c-1.49,0-0.998,0.606-0.966,2.243
				c0,0.246,0.033,0.458,0.065,0.655c0.262,1.506,1.293,2.112,1.539,2.979v0.017c0.016,0.033,0.016,0.098,0,0.131
				c-0.098,0.9-2.848,2.341-4.535,2.341c-2.243-0.868-5.451-5.402-5.762-7.792v-0.016c-0.131-0.998-0.033-2.063,0.033-3.094
				c0.115-1.441,0.213-2.799-0.36-3.651c-0.998-1.457-3.208-1.555-6.237-3.11c-2.112-1.081-2.39,0.638-1.408,2.406
				c0.442,0.77,1.113,1.555,1.997,2.112c2.832,1.784,2.619,2.406,3.094,3.421c0.147,0.295,0.229,0.655,0.245,1.097v0.098
				c0,1.064-0.442,2.521-1.686,4.518c-1.784,2.898-2.177,3.863-4.944,3.863c-2.963,0-3.765-0.065-5.419-1.473
				c-1.866-1.572-2.177-2.488-2.079-4.142v-0.033c0.033-0.016,0.082-0.049,0.131-0.065c0.671-0.393,1.211-1.654,1.392-3.127
				c0.262-2.177-0.262-4.78-2.341-5.762c-3.634-1.702-3.978-6.384-5.86-6.99c-2.128-0.065-3.405,2.701-4.829,3.405
				c-1.555,0.18-2.455-0.164-3.421-0.491c-0.999-0.344-2.03-0.688-3.094-0.688c-2.963,0.229-1.097,4.256-3.585,7.203
				c-0.949,1.113-1.293,1.392-1.637,1.392c-0.802-0.229-5.844,3.634-7.596,6.695c-0.606,1.13-1.375,1.506-2.227,1.506
				c-1.522,0-3.372-1.228-5.32-1.833c-3.061-0.966-4.535,0.278-7.416-2.652c-2.308-2.357-3.667-3.012-3.782-4.829c0,0,0,0,0-0.017
				c-0.033-0.491,0.017-1.048,0.164-1.735c0.72-3.372,1.408-7.629,4.322-10.084c0.786-0.671,1.342-0.9,1.784-0.9
				c0.508,0,0.884,0.311,1.342,0.622c0.442,0.328,8.447-0.933,10.722-1.342c0.344-0.066,0.606-0.18,0.802-0.311
				c1.064-0.77,0.147-2.587-0.753-3.962c-0.033-0.049-0.065-0.098-0.098-0.147c-1.081-1.637-4.731-2.898-5.353-3.618
				c-0.606-0.753-0.917-3.814-1.539-5.664c-0.655-1.85-5.32-0.36-7.71-0.36c-2.668-0.131-3.962-1.817-4.862-3.7
				c-0.115-0.229-0.164-0.475-0.18-0.753c0.017-0.098,0.017-0.18,0.033-0.279c0.147-2.128,2.685-5.467,4.96-6.319
				c2.701-0.982,5.992-3.831,6.81-6.434c0.819-2.635,2.325-5.189,2.423-5.32c0.442-0.835,0.966-1.277,1.654-1.277
				c0.949,0,7.137,4.093,6.532,8.316c-0.049,0.311-0.098,0.589-0.147,0.819c-0.278,1.359-0.622,1.522-1.031,1.522
				c-0.753-0.016-1.097,0.098-1.408,0.851c-0.262,0.589-0.54,2.423-0.344,4.289c0.115,1.277,0.458,2.57,1.146,3.52
				c2.013,2.816,6.319,3.438,6.974,2.194c1.244-2.308,4.911-1.228,6.531-3.913c1.244-2.079,0.802-2.243,1.997-2.243
				c2.423,0,3.176,0.033,3.798,0.082c0.622,0.033,1.162,0.082,1.637,0.082c0.982,0,1.784-0.164,2.586-0.769
				c0.115-0.082,0.213-0.147,0.278-0.229c0.966-0.966,0.049-1.899-0.311-3.896v-0.016c-0.049-0.376-0.098-0.786-0.098-1.244
				c-0.016-0.409,0-0.737,0.033-0.982c0.147-1.457,0.769-1.08,1.866-1.67c0.278-0.147,0.589-0.36,0.917-0.688
				c0.638-0.606,1.178-0.802,1.67-0.802c0.655,0,1.228,0.376,1.899,0.688c0.311,0.147,0.671,0.278,1.064,0.344
				c1.506,0.033,0.245-1.31-1.293-3.323c-0.786-1.031-1.375-1.621-1.964-1.621c-0.639,0-1.277,0.753-2.177,2.505
				c-0.753,1.424-1.195,1.899-1.752,1.899c-0.72,0-1.669-0.802-3.781-1.326c-3.732-0.95-3.961-1.735-4.567-3.307
				c-0.033-0.082-0.065-0.213-0.098-0.327c-0.409-1.883,0.507-6.581,1.719-8.349c1.293-1.915,6.122-1.277,9.822-2.276
				c3.716-1.015,2.341-1.49,7.661-7.825c5.402-6.45,4.256-4.24,7.465-6.548c2.063-1.473,9.74-1.981,16.452-1.981
				c3.814,0,7.317,0.164,9.315,0.409c5.517,0.688,2.504,0.966,6.892,4.486c4.322,3.438,3.716,1.588,9.609,3.307
				c5.861,1.719,5.37,1.49,7.056,3.814c0.327,0.442,0.507,0.835,0.524,1.178c0.164,1.424-1.883,2.21-4.109,4.011
				c-0.671,0.54-1.293,0.72-1.899,0.72c-0.573,0-1.13-0.18-1.604-0.36c-0.475-0.164-0.884-0.344-1.228-0.344
				c-0.36,1.49-0.049,2.341,0.655,2.832c1.195,0.851,3.569,0.704,5.697,1.195c3.471,0.066,4.633-4.944,7.694-7.94
				c1.244-1.228,1.915-1.654,2.406-1.654c0.835,0,1.179,1.195,2.93,1.899c2.799,1.146,1.784,3.29,5.026,3.847
				c0.458,0.066,0.769,0.098,1.031,0.098c1.048,0,2.128-2.98,2.423-5.975c0.147-1.621,0.066-3.258-0.36-4.42
				c-0.295-0.753-0.442-1.293-0.475-1.686c0-0.131,0-0.246,0.033-0.344c0.213-1.031,1.85-1.113,5.5-3.241
				c5.222-3.061,1.523-0.753,5.026-3.536c1.064-0.835,1.719-1.13,2.341-1.13c1.441,0,2.636,1.588,7.989,1.719
				c5.451,0.115,7.465,2.308,7.628,3.814c0,0,0.017,0,0.017,0.016c0.065,0.589-0.147,1.081-0.557,1.277
				c-1.146,0.622-3.389,1.883-5.599,1.883c-0.458,0-0.917-0.049-1.375-0.18c-1.031-0.311-2.865-0.507-4.715-0.507
				c-2.799,0-5.631,0.458-5.91,1.801c-0.213,1.113-0.033,1.735,0.115,2.423c0.131,0.655,0.245,1.375-0.016,2.636
				c-0.016,0.065-0.033,0.147-0.049,0.213c-0.393,1.703-0.851,2.128,0.065,2.292c0.573,0.115,1.719,0.131,3.765,0.311
				c5.288,0.458,4.338,0.033,9.691,0.884c5.32,0.884,4.273,4.191,7.629,4.551c0.278,0,0.507-0.016,0.687-0.049
				c1.85-0.393-0.409-2.766-1.162-5.533c-0.147-0.573-0.18-1.064-0.082-1.49c0.344-1.932,2.832-2.226,4.944-2.308
				c2.554,0,2.357,1.031,4.878,4.273c2.587,3.34,8.398,6.204,10.313,4.715c1.408-1.097,2.308-1.604,3.503-1.604
				c1.211,0,2.701,0.524,5.255,1.457c1.228,0.426,2.095,0.606,2.734,0.606c2.013,0,1.702-1.735,2.636-2.145
				c0.295-0.115,0.491-3.601,2.783-3.323c2.849,0.344,6.433,2.865,10.248,4.404c5.533,2.226,11.328,3.798,14.275,5.631
				c4.043,2.472,12.556,3.929,16.108,6.434c5.189,3.618,5.157,8.251,9.266,11.606v0.016c0.753,0.606,6.777,2.357,7.498,2.963
				c10.968,9.135,12.359,15.175,14.258,16.845c3.159,2.799,4.109,6.892,6.45,7.367c0.458,0,0.835-0.131,1.113-0.344
				c0,0,0.016,0,0.016-0.017c0.066-0.016,0.393-0.147,0.966-0.147c0.589-0.033,1.44,0.049,2.537,0.458
				c0.409,0.164,0.868,0.36,1.342,0.622c0.311,0.229,0.688,0.442,1.097,0.639c2.046,0.966,3.388,1.555,6.27,5.156
				c2.849,3.569,5.484,8.251,9.086,11.786c3.536,3.503,5.189,4.06,8.087,5.189c2.914,1.113,3.798,3.29,4.567,6.892
				c0.737,3.602,3.012,5.288,5.32,7.154c2.308,1.833,6.352,5.173,9.511,8.218c3.127,3.029,7.334,10.772,8.823,14.668
				c1.49,3.831,3.454,3.798,5.271,7.727c1.768,3.88,4.207,7.645,5.419,9.495C683.54,297.409,683.393,297.786,682.771,298.948z"/>
			
				<linearGradient id="SVGID_00000147939603172782156540000000352937077452962482_" gradientUnits="userSpaceOnUse" x1="192.7912" y1="130.5354" x2="192.7912" y2="379.9497">
				<stop  offset="0" style="stop-color:#8AB9FD"/>
				<stop  offset="1" style="stop-color:#0056E9"/>
			</linearGradient>
			<path style="fill:url(#SVGID_00000147939603172782156540000000352937077452962482_);" d="M301.345,355.016
				c-0.524,0.458,1.882,7.825,2.112,9.118c0.229,1.31-1.113,5.959-2.226,7.236c-1.097,1.277-5.55,0.573-6.237,1.081
				c-0.704,0.507-2.39,1.882-2.341,3.454c0.033,1.555,0.802,4.027,1.064,4.993c0.246,0.966-1.211,1.981-2.57,3.912
				c-1.342,1.948-0.982,5.811-1.801,6.712c-0.344,0.376-0.802,0.458-1.244,0.458c-1.064-0.033-1.342,0.016-1.506,0.213
				c-0.475,0.589,0.311,3.34,0.098,4.142c-0.229,0.802-1.048,0.737-2.243,0.982c-1.178,0.262-0.524,1.13-0.982,1.768
				c-0.442,0.639-1.391,1.097-1.637,1.179c-0.262,0.098,0,1.293,0.278,2.57c0.262,1.293-1.195,5.517-0.262,6.417
				c0.933,0.884,2.013,1.703,1.932,2.93c-0.098,1.228,0.77,3.618,1.899,4.78c1.113,1.162,4.109,0.622,5.353,1.31
				c1.211,0.688,1.113,0.589-1.212,1.539c-0.835,0.344-1.571,0.491-2.308,0.491c-1.293,0-2.554-0.508-4.207-1.457
				c-1.048-0.605-1.588-0.753-1.964-0.753c-1.162,0.164-1.359,0.147-1.621,0.065c-1.555-0.409-2.324-2.03-5.075-3.831
				c-2.75-1.784-2.063-1.866-2.554-2.734c-0.491-0.884,0.278-3.241-1.277-4.649c-1.588-1.408-1.588-1.408-2.767-2.635
				c-1.195-1.195-1.26-1.604-2.275-4.404c-1.015-2.832-0.77-4.027-2.341-7.416c-1.604-3.438-1.899-2.014-3.012-4.109
				c-1.097-2.095-1.85-10.133-3.405-13.096c-1.572-2.979-1.637-3.945-3.896-5.353c-2.259-1.408-10.985-3.618-11.869-4.207
				c-0.884-0.589-3.307-4.928-4.06-6.319c-0.769-1.392-7.334-4.846-7.858-5.108c-0.556-0.246,0.213-1.735-0.082-3.945
				c-0.278-2.227-1.604-1.572-2.848-1.85c-1.244-0.278-1.277-3.602-1.228-5.648c0.049-2.063,4.223-2.57,4.24-5.353
				c0-1.522-0.311-2.635-0.72-3.421c-0.344-0.655-0.753-1.064-1.081-1.31c-0.491-0.016-1.358,0.605-2.308,1.391
				c-1.228,1.015-2.586,2.276-3.454,2.685c-0.557,0.278-0.999,0.344-1.474,0.344c-0.245,0-0.524-0.033-0.802-0.049
				c-0.294-0.016-0.638-0.049-1.015-0.049c-0.475,0-1.031,0.033-1.719,0.147c-2.652,0.475-8.578,4.6-9.888,4.895h-0.016
				c-0.049,0.017-0.082,0.017-0.115,0.017c-0.835-0.18-0.917-2.963-1.752-4.436c-0.819-1.506-2.636-1.572-3.945-1.981
				c-1.915-0.049-4.796,1.654-7.236,1.735c-2.75,0-5.025-1.85-6.22-1.899c-1.261,0-4.436,3.454-5.746,4.125
				c-0.966,0.491-5.664,1.113-8.872,1.113c-1.211,0-2.21-0.065-2.701-0.295c-1.408-0.573-2.423-3.585-3.29-5.402
				c-0.311-0.622-0.589-1.097-0.868-1.31c-1.097-0.786-4.78-0.294-5.729-0.638c-0.982-0.36-2.538-1.768-4.469-3.388
				c-1.948-1.637-3.028-1.67-3.814-1.686c-0.753,0-0.229,1.113,1.31,2.587c1.555,1.473,5.075,3.028,6.368,3.945
				c0.196,0.131,0.376,0.327,0.54,0.557c0.753,1.129,0.737,2.979,0.229,2.979c-0.508-0.033-5.648-1.261-8.922-2.947
				c-0.589-0.295-1.097-0.589-1.522-0.917c-2.832-2.128-3.962-6.45-6.483-8.054c-0.605-0.377-1.129-0.508-1.604-0.508
				c-0.557,0-1.048,0.18-1.555,0.344c-0.491,0.18-0.999,0.344-1.572,0.344c-0.475,0-0.999-0.098-1.588-0.425
				c-2.783-1.424-5.288-6.663-6.663-7.481s-0.999-1.965-0.295-6.63c0.704-4.698-2.456-14.291-5.271-19.17
				c-2.849-4.911-5.255-3.961-9.282-7.072c-3.978-3.094-4.322-6.45-5.664-6.45c-1.506,0.164-8.856,5.402-13.326,9.429
				c-4.404,3.994-0.966,5.779-2.636,12.049c-1.653,6.155-2.275,8.905-3.274,12.965c-0.327,1.408-0.9,2.488-1.539,3.29
				c-0.982,1.244-2.144,1.801-2.914,1.801c-1.179-0.376-1.572-1.572-1.244-3.618c0.098-0.655,0.278-1.408,0.54-2.259
				c1.064-3.487,0.344-3.716-2.095-5.795c-0.852-0.704-1.457-0.901-1.948-0.901c-0.262,0-0.491,0.066-0.704,0.131
				c-0.213,0.049-0.393,0.115-0.589,0.115c-0.279,0-0.54-0.115-0.868-0.508c-1.244-1.44,0.295-6.417,2.112-8.987
				c1.801-2.603,1.948-3.814,1.08-5.533c-0.851-1.686-1.392-0.246-2.161-2.161c-0.802-1.915,2.603-4.289,4.076-5.517
				c1.473-1.211-0.671-4.076-1.277-5.631c-0.638-1.539,2.145-4.027,2.276-4.174c3.405-0.884,2.996-7.072,7.055-9.888
				c4.076-2.832,2.357-4.42,5.451-8.873c3.127-4.502,1.784-3.159,5.566-6.27c1.572-1.277,2.063-1.571,2.406-1.571
				c0.638,0.164,0.851,0.213,1.228,0.213c0.459,0,1.162-0.098,2.243-0.409c4.682-1.375,2.259-2.112,7.498-4.6
				c3.995-1.866,4.829-2.979,8.693-5.386c1.244-0.786,2.832-1.719,4.944-2.865c1.866-0.999,3.192-1.784,4.174-2.456
				c3.618-2.472,2.292-3.241,4.06-6.564c2.292-4.273,3.716-3.88,7.939-8.496c4.306-4.682,4.698-12.933,5.812-13.244
				c0.72-0.18,11.459-7.121,19.579-12.196h0.016c4.748-2.963,8.578-5.304,8.987-5.271c0.393,0,7.17-3.29,7.89-3.552
				c2.75-0.949,5.484-2.521,6.761-2.521c1.31,1.228-0.655,2.619,0.524,4.551c0.426,0.737,1.31,0.966,2.341,0.966
				c1.67,0,3.732-0.639,4.747-0.819c1.686-0.295-1.604-3.88-2.635-6.826c-0.065-0.164-0.082-0.327-0.065-0.491
				c0.131-1.67,3.47-3.323,4.011-3.536c1.67-0.655,4.846-3.356,6.614-2.03c0.687,0.491,0.737,0.851,1.342,0.851
				c1.375,0,2.783-0.95,5.14-1.097c2.488-0.164,4.796-1.523,6.712-1.523c0.655,0,1.26,0.164,1.817,0.573
				c2.177,1.653-0.377,3.65,0.638,4.469c1.015,0.802,3.503,0.753,6.548,2.406c3.012,1.67,4.584,2.128,6.204,3.7
				c1.621,1.621,4.796,1.195,6.695,3.16c1.899,1.948,0.017,1.866-0.982,3.438c-0.458,0.688-1.13,0.966-2.046,0.966
				c-0.655,0-2.063,2.079-3.111,4.289c-0.737,1.572-1.31,3.209-1.244,4.207c0.131,2.341,0.082,3.602-2.619,4.191
				c-2.701,0.573-2.357,0.409-4.764,0.475c-2.439,0.066-2.93,0.049-3.52,2.128c-0.606,2.079-1.506,5.942-0.982,6.859
				c0.229,0.377,0.851,0.557,1.653,0.557c1.031,0,2.39-0.295,3.601-0.835c2.112-0.95,1.572-4.862,3.34-5.828
				c0.426-0.229,0.819-0.327,1.195-0.327c1.228,0,2.292,1.015,3.503,1.604c1.571,0.786,0.966,1.637,0.082,3.52
				c-0.917,1.899-2.243,2.504-0.933,3.961c0.393,0.442,0.95,0.573,1.654,0.573c0.605,0,1.293-0.098,2.046-0.197
				c0.753-0.114,1.539-0.229,2.324-0.229c0.573,0,1.146,0.065,1.67,0.229c2.881,0.802,0.655,5.009,1.522,7.563
				c0.835,2.505,3.389,4.6,3.618,7.628c0.196,2.979-0.442,2.636-2.619,4.502c-1.326,1.13-4.027,1.67-6.237,1.67
				c-1.408,0-2.603-0.213-3.127-0.622c-1.342-1.048-1.523-1.048-0.442-3.061c1.064-2.014,1.539-3.831,0.77-4.207
				c-0.966-0.033-2.079,1.67-3.798,3.667c-1.441,1.67-3.16,1.817-4.666,1.817c-2.996-0.016-2.554,1.801-1.686,3.389
				c0.851,1.604,3.356,1.735,5.353,2.57c1.932,0.818,2.439,1.195,1.965,2.03c-0.246,0.475-1.85,2.423-3.618,4.191
				c-1.293,1.293-2.685,2.505-3.7,3.012c-0.671,0.327-1.244,0.409-1.768,0.409c-0.278,0-0.54-0.016-0.802-0.033
				c-0.262-0.033-0.507-0.065-0.77-0.065c-0.786,0-1.637,0.213-2.701,1.326c-2.423,2.472-4.747,1.441-5.713,3.029
				c-0.851,1.391-0.589,3.388-1.719,6.712c-0.164,0.442-0.327,0.9-0.54,1.392c-1.751,4.142-6.221,7.088-7.154,8.169
				c-0.917,1.08,0.737,4.125,1.441,5.812c0.688,1.686,0.065,2.194-1.293,3.11c-0.115,0.082-0.229,0.164-0.344,0.278
				c-1.195,1.048-2.161,3.16-3.307,5.075c-0.59,1.031-1.326,3.471-1.948,5.762c-0.655,2.341-1.179,4.518-1.375,4.764
				c-0.344,0.508-0.196,0.835,0.639,2.619c0.802,1.784,2.21,3.683,1.768,5.91c-0.344,1.719-1.326,2.423-2.685,2.423
				c-0.409,0-0.835-0.066-1.277-0.18c-2.03-0.475-0.835-1.44-1.801-4.109c-0.802-2.194-1.686-2.701-3.143-2.701
				c-0.36,0-0.737,0.033-1.162,0.066c-2.177,0.213-1.064,1.801-1.244,3.634c-0.163,1.801-1.162,1.965-5.418,2.112
				c-4.207,0.115-2.685,0.884-5.157,3.372c-2.472,2.504-2.112,7.53-1.752,10.559c0.377,2.996,2.636,5.664,4.387,7.825
				c0.819,1.015,1.686,1.31,2.718,1.31c1.113,0,2.423-0.36,4.06-0.491c3.159-0.246,1.228-2.406,1.751-7.072
				c0.262-2.308,0.508-2.717,0.999-2.717c1.522,0.147,2.046,0.033,2.685-0.327c2.734-1.539,2.439-2.734,3.602-4.354
				c1.178-1.637,3.176-2.439,3.356-4.027c0.131-1.26,1.752-1.801,3.094-1.801c0.344,0,0.688,0.033,0.966,0.098
				c0.311,0.066,0.786,0.098,1.408,0.098c0.557,0,1.244-0.016,1.964-0.033c0.72-0.017,1.49-0.033,2.275-0.033
				c1.49,0,3.029,0.065,4.305,0.295c1.817,0.36,3.962,0.556,5.812,0.556c1.604,0,2.996-0.131,3.831-0.409
				c0.917-0.311,2.046-0.573,3.028-0.573c0.884,0,1.653,0.213,2.046,0.769c0.802,1.163-0.868,1.768-3.405,2.652
				c-2.538,0.9-3.356,2.505-5.632,2.799c-2.308,0.311-2.095,1.965-3.094,3.356c-0.867,1.195-2.521,1.621-3.323,1.621
				c-0.868-0.18-2.275-1.833-1.735-3.127c0.556-1.31,0.72-2.996-1.588-3.422c-2.144-0.393-4.043-1.08-6.27-1.08
				c-2.881,0.115-1.342,1.833-2.897,2.685c-1.572,0.851-2.668,2.063-3.454,2.947c-0.769,0.867-0.835,3.945-0.999,6.499
				c-0.115,2.538,0.213,4.076,1.13,4.486c0.769,0.049,1.964-0.54,3.258-1.097c1.31-0.573,2.734-1.13,3.7-1.13
				c0.278,0,0.524,0.033,0.704,0.131c1.637,0.9,2.227,5.238,3.192,6.974c0.72,1.293,1.67,1.883,3.47,2.095
				c0.557,0.049,1.195,0.082,1.932,0.082c3.127,0,6.826-3.683,8.202-4.698c1.359-1.015,0.278-4.715,1.424-5.615
				c0.573-0.475,1.604-1.702,2.717-2.881c0.016-0.033,0.049-0.049,0.082-0.082c0.589-0.606,1.211-1.195,1.801-1.637
				c0.475-0.376,0.917-0.638,1.326-0.753c1.211-0.36,3.749-0.491,6.728-0.491c1.85,0,3.847,0.049,5.811,0.147
				c5.091,0.278,5.386,0.344,7.547,1.277c2.145,0.933,6.22,4.109,7.497,4.469c0.278,0.082,0.556,0.115,0.851,0.115
				c0.426,0,0.868-0.066,1.408-0.131c0.556-0.065,1.195-0.131,1.965-0.131c0.376,0,0.753,0.017,1.179,0.049
				c2.865,0.229,3.7,0.327,6.63,3.045c2.227,2.096,4.846,5.37,6.957,7.203c0.638,0.557,1.228,0.999,1.735,1.211
				c2.243,0.949,7.514,1.326,10.117,1.686c2.586,0.344,4.584,1.703,6.302,2.799c0.262,0.18,0.508,0.245,0.737,0.245
				c0.59,0,1.081-0.409,1.588-0.818c0.508-0.409,1.031-0.819,1.588-0.819c2.128,0.851,2.521,2.979,2.603,3.781
				c0.065,0.769,1.31,5.91,0.376,6.826C305.094,348.73,301.902,354.574,301.345,355.016z"/>
		</g>
		<g>
			
				<linearGradient id="SVGID_00000137131470617989441560000005603529504023509910_" gradientUnits="userSpaceOnUse" x1="600.8922" y1="457.7439" x2="600.8922" y2="372.9823">
				<stop  offset="0" style="stop-color:#53B0B1"/>
				<stop  offset="1" style="stop-color:#6ACAD8"/>
			</linearGradient>
			<path style="fill:url(#SVGID_00000137131470617989441560000005603529504023509910_);" d="M540.496,455.505l-5.342-20.1
				c0,0,24.294-63.111,45.523-66.033c21.229-2.922,10.506,43.761,10.506,43.761s23.936-58.938,45.766-43.906
				c21.395,14.732-32.616,61.768-32.616,61.768s35.592-30.686,45.254-19.736c10.053,11.394-41.936,28.195-41.936,28.195
				s33.319-8.471,44.426-2.631c12.33,6.484,14.553,18.682,14.553,18.682H540.496z"/>
			
				<linearGradient id="SVGID_00000022530953856470944910000015943218554981512623_" gradientUnits="userSpaceOnUse" x1="141.9092" y1="458.1125" x2="141.9092" y2="359.3203">
				<stop  offset="0" style="stop-color:#53B0B1"/>
				<stop  offset="1" style="stop-color:#6ACAD8"/>
			</linearGradient>
			<path style="fill:url(#SVGID_00000022530953856470944910000015943218554981512623_);" d="M126.8,455.503
				c0,0-65.085-17.614-59.149-30.294c5.936-12.68,56.872,19.369,56.872,19.369s-49.021-40.785-40.596-51.511
				c9.034-11.5,46.915,40.245,46.915,40.245s-34.574-68.255-18.957-71.075c13.787-2.489,25.66,57.381,25.66,57.381
				s-0.607-67.526,13.021-67.535c15.894-0.01,2.681,67.535,2.681,67.535s14.362-39.189,25.851-36.891
				c11.489,2.298-14.553,47.298-14.553,47.298s34.048-44.391,43.111-36.957c10.506,8.617-32.196,47.681-32.196,47.681
				s33.319-26.917,40.213-20.448c6.894,6.469-29.106,35.203-29.106,35.203H126.8z"/>
			
				<linearGradient id="SVGID_00000158014337588102319390000001692924320695273104_" gradientUnits="userSpaceOnUse" x1="317.3527" y1="440.9526" x2="351.6939" y2="440.9526">
				<stop  offset="0" style="stop-color:#53B0B1"/>
				<stop  offset="1" style="stop-color:#6ACAD8"/>
			</linearGradient>
			<path style="fill:url(#SVGID_00000158014337588102319390000001692924320695273104_);" d="M351.694,444.349
				c0,0-9.734-24.76-18.16-21.409c-7.52,2.991,6.16,22.532,6.16,22.532s-11.33-13.436-16.886-7.787
				c-4.598,4.675,9.482,12.242,9.482,12.242s-15.064-2.882-14.936,5.587c0.128,8.468,0,0,0,0h34.34V444.349z"/>
		</g>
		<g>
			<path d="M573.956,222.919c-0.571,1.324-2.108,1.934-3.432,1.362c-1.324-0.571-1.934-2.108-1.362-3.431s2.108-1.934,3.432-1.362
				C573.917,220.059,574.527,221.595,573.956,222.919z"/>
			<path d="M638.899,255.132c-0.571,1.324-2.108,1.934-3.431,1.362c-1.324-0.571-1.934-2.108-1.362-3.432
				c0.571-1.324,2.108-1.934,3.432-1.362C638.861,252.272,639.471,253.809,638.899,255.132z"/>
			
				<linearGradient id="SVGID_00000096770712401571359690000013336035522767214251_" gradientUnits="userSpaceOnUse" x1="575.4631" y1="168.2676" x2="571.6333" y2="210.0123">
				<stop  offset="0" style="stop-color:#875FA7"/>
				<stop  offset="1" style="stop-color:#582792"/>
			</linearGradient>
			<path style="fill:url(#SVGID_00000096770712401571359690000013336035522767214251_);" d="M588.933,182.307
				c-0.686-2.606-1.911-4.594-3.361-6.104c-2.756-3.091-6.698-5.115-11.152-5.302c-4.468-0.187-8.565,1.501-11.557,4.351
				c-1.571,1.383-2.958,3.262-3.859,5.801c-0.591,1.553-0.968,3.217-1.042,4.97c-0.003,0.064,0.008,0.116,0.006,0.167
				c-0.909,14.042,13.059,28.066,14.633,28.132c1.562,0.065,16.653-12.742,16.934-26.81l0.007-0.166
				C589.616,185.593,589.392,183.903,588.933,182.307z M573.469,193.611c-3.828-0.16-6.796-3.388-6.635-7.215
				c0.16-3.815,3.387-6.783,7.215-6.622c3.815,0.16,6.783,3.387,6.623,7.202C580.511,190.802,577.284,193.77,573.469,193.611z"/>
			<path d="M351.149,260.756c-0.49,1.356-1.987,2.057-3.343,1.567c-1.356-0.49-2.057-1.987-1.567-3.343
				c0.49-1.356,1.987-2.058,3.343-1.567C350.937,257.904,351.639,259.4,351.149,260.756z"/>
			
				<linearGradient id="SVGID_00000011007845717224687010000004974414719892164504_" gradientUnits="userSpaceOnUse" x1="349.0881" y1="252.4082" x2="359.4285" y2="213.855">
				<stop  offset="0" style="stop-color:#E6832C"/>
				<stop  offset="1" style="stop-color:#E9A347"/>
			</linearGradient>
			<path style="fill:url(#SVGID_00000011007845717224687010000004974414719892164504_);" d="M371.932,224.284
				c-0.197-2.688-1.037-4.866-2.186-6.616c-2.143-3.543-5.648-6.255-9.993-7.254c-4.358-1.002-8.695-0.093-12.158,2.161
				c-1.798,1.072-3.505,2.665-4.856,4.997c-0.865,1.418-1.541,2.985-1.934,4.696c-0.014,0.062-0.013,0.115-0.025,0.165
				c-3.465,13.638,7.698,29.983,9.234,30.336c1.523,0.35,18.705-9.477,21.558-23.256l0.037-0.162
				C372.002,227.639,372.091,225.938,371.932,224.284z M354.66,232.565c-3.733-0.858-6.06-4.575-5.202-8.308
				c0.856-3.721,4.572-6.048,8.306-5.189c3.721,0.856,6.048,4.572,5.192,8.293C362.097,231.094,358.381,233.421,354.66,232.565z"/>
			<path d="M126.471,236.954c1.007,2.71-0.373,5.723-3.083,6.73c-2.71,1.007-5.723-0.374-6.73-3.083
				c-1.007-2.71,0.373-5.723,3.083-6.73C122.451,232.864,125.464,234.244,126.471,236.954z"/>
			
				<linearGradient id="SVGID_00000149377674850132499360000011262284414827527343_" gradientUnits="userSpaceOnUse" x1="105.7868" y1="204.9127" x2="105.7868" y2="263.2398" gradientTransform="matrix(0.9534 -0.3019 0.3019 0.9534 -63.1487 8.0525)">
				<stop  offset="0" style="stop-color:#E4816F"/>
				<stop  offset="1" style="stop-color:#E25E52"/>
			</linearGradient>
			<path style="fill:url(#SVGID_00000149377674850132499360000011262284414827527343_);" d="M124.545,178.528
				c-2.221-3.206-4.869-5.304-7.588-6.641c-5.276-2.841-11.638-3.647-17.789-1.699C93,172.142,88.261,176.463,85.6,181.817
				c-1.453,2.658-2.411,5.898-2.382,9.798c-0.036,2.404,0.273,4.854,1.04,7.275c0.028,0.088,0.068,0.153,0.09,0.224
				c5.704,19.548,31.632,31.72,33.807,31.031c2.156-0.683,16.353-25.561,9.782-44.834l-0.073-0.23
				C127.098,182.66,125.958,180.473,124.545,178.528z M109.099,201.546c-5.285,1.674-10.917-1.249-12.591-6.534
				c-1.668-5.268,1.255-10.9,6.54-12.573c5.267-1.668,10.899,1.255,12.568,6.523C117.289,194.245,114.366,199.878,109.099,201.546z"
				/>
			
				<path style="fill:none;stroke:#000000;stroke-width:0.75;stroke-linecap:round;stroke-linejoin:round;stroke-miterlimit:10;stroke-dasharray:7;" d="
				M571.559,221.884c0,0,19.459-19.03,43.944-9.02c27.192,11.118,21,41.233,21,41.233"/>
			
				<path style="fill:none;stroke:#000000;stroke-width:0.75;stroke-linecap:round;stroke-linejoin:round;stroke-miterlimit:10;stroke-dasharray:7;" d="
				M121.565,238.777c0,0,4.427-39.689,39.916-48.306c27.958-6.788,38.17,20.613,38.17,20.613"/>
			
				<path style="fill:none;stroke:#000000;stroke-width:0.75;stroke-linecap:round;stroke-linejoin:round;stroke-miterlimit:10;stroke-dasharray:7;" d="
				M240.677,234.613c0,0,15.442-29.969,60.242-21.577c38.051,7.128,47.775,46.832,47.775,46.832"/>
		</g>
		<g>
			
				<linearGradient id="SVGID_00000150803604645121477580000005113131706520201912_" gradientUnits="userSpaceOnUse" x1="344.2221" y1="41.802" x2="364.6476" y2="105.3764">
				<stop  offset="0" style="stop-color:#8AB9FD"/>
				<stop  offset="1" style="stop-color:#0056E9"/>
			</linearGradient>
			<path style="opacity:0.2;fill:url(#SVGID_00000150803604645121477580000005113131706520201912_);" d="M448.863,66.35
				c-0.061-0.272-0.153-0.532-0.283-0.785l-0.001-0.003c-0.116-0.23-0.261-0.452-0.434-0.668c-0.618-0.861-1.601-1.653-2.957-2.381
				c-1.355-0.725-3.076-1.385-5.169-1.979c-0.72-0.18-1.501-0.377-2.342-0.594c0,0-0.001-0.001-0.001-0.001l0.001,0
				c-0.938-0.734-1.922-1.331-2.956-1.786c-0.261-0.115-0.526-0.219-0.797-0.317l-0.001,0c-2.53-0.93-5.342-1.129-8.436-0.599
				c-6.021,1.016-116.837,24.871-116.837,24.871L271.778,62.53c-1.151-0.612-2.48-0.814-3.764-0.573l-4.245,0.796
				c-0.021,0.004-0.043,0.008-0.063,0.015c-1.52,0.329-2.24,2.096-1.364,3.393l14.731,21.841l-3.43,0.59
				c-1.995,0.465-2.665,1.596-2.013,3.389c0.07,0.173,0.129,0.338,0.175,0.496c0.1,0.214,0.207,0.415,0.327,0.6
				c0.707,1.118,1.761,1.714,3.16,1.785l0.13,0.005c-4.03,3.021-8.822,6.639-8.76,6.716c0.252,0.313,14.463-1.803,15.539-2.131
				c0.424-0.129,3.014-1.937,5.993-4.078l36.434,1.445c5.191,0.217,10.203-0.131,15.032-1.037c4.795-0.746,9.578-1.523,14.359-2.304
				c-7.49,6.866-15.595,14.358-15.482,14.53c0.494,0.75,28.379-4.321,30.491-5.107c1.112-0.414,9.799-8,17.775-15.09
				c8.016-1.458,16.02-2.948,23.997-4.507l1.643-0.308c1.059-0.199,2.113-0.425,3.161-0.678c4.895-1.176,8.991-2.326,12.293-3.449
				c0.834-0.324,1.641-0.623,2.427-0.899C443.326,72.854,449.507,68.979,448.863,66.35z"/>
			<g>
				<path style="fill:#FFFFFF;" d="M407.802,64.404l0.415-0.089c0.957-0.206,1.9,0.403,2.105,1.36l0.423,1.967
					c0.206,0.957-0.403,1.9-1.36,2.105l-0.415,0.089c-0.957,0.206-1.9-0.403-2.105-1.36l-0.423-1.967
					C406.236,65.552,406.845,64.609,407.802,64.404z"/>
				<path style="fill:#FFFFFF;" d="M402.887,65.461l0.415-0.089c0.957-0.206,1.899,0.403,2.105,1.36l0.423,1.967
					c0.206,0.957-0.403,1.9-1.36,2.105l-0.415,0.089c-0.957,0.206-1.899-0.403-2.105-1.36l-0.423-1.967
					C401.321,66.609,401.93,65.666,402.887,65.461z"/>
				<path style="fill:#FFFFFF;" d="M397.972,66.517l0.415-0.089c0.957-0.206,1.9,0.403,2.105,1.36l0.423,1.967
					c0.206,0.957-0.403,1.9-1.36,2.105l-0.415,0.089c-0.957,0.206-1.9-0.403-2.105-1.36l-0.423-1.967
					C396.406,67.666,397.015,66.723,397.972,66.517z"/>
				<path style="fill:#FFFFFF;" d="M393.058,67.574l0.415-0.089c0.957-0.206,1.9,0.403,2.105,1.36L396,70.812
					c0.206,0.957-0.403,1.9-1.36,2.105l-0.415,0.089c-0.957,0.206-1.9-0.403-2.105-1.36l-0.423-1.967
					C391.492,68.723,392.101,67.78,393.058,67.574z"/>
				<path style="fill:#FFFFFF;" d="M388.143,68.631l0.415-0.089c0.957-0.206,1.9,0.403,2.105,1.36l0.423,1.967
					c0.206,0.957-0.403,1.899-1.36,2.105l-0.415,0.089c-0.957,0.206-1.9-0.403-2.105-1.36l-0.423-1.967
					C386.577,69.779,387.186,68.837,388.143,68.631z"/>
				<path style="fill:#FFFFFF;" d="M378.313,70.744l0.415-0.089c0.957-0.206,1.899,0.403,2.105,1.36l0.423,1.967
					c0.206,0.957-0.403,1.9-1.36,2.105l-0.415,0.089c-0.957,0.206-1.9-0.403-2.105-1.36l-0.423-1.967
					C376.747,71.893,377.356,70.95,378.313,70.744z"/>
				<path style="fill:#FFFFFF;" d="M373.398,71.801l0.415-0.089c0.957-0.206,1.9,0.403,2.105,1.36l0.423,1.967
					c0.206,0.957-0.403,1.899-1.36,2.105l-0.415,0.089c-0.957,0.206-1.9-0.403-2.105-1.36l-0.423-1.967
					C371.833,72.95,372.441,72.007,373.398,71.801z"/>
				<path style="fill:#FFFFFF;" d="M368.484,72.858l0.415-0.089c0.957-0.206,1.9,0.403,2.105,1.36l0.423,1.967
					c0.206,0.957-0.403,1.9-1.36,2.105l-0.415,0.089c-0.957,0.206-1.9-0.403-2.105-1.36l-0.423-1.967
					C366.918,74.006,367.527,73.064,368.484,72.858z"/>
			</g>
			<g>
				<path style="fill:#FFFFFF;" d="M358.681,74.963l0.415-0.089c0.957-0.206,1.9,0.403,2.105,1.36l0.423,1.967
					c0.206,0.957-0.403,1.899-1.36,2.105l-0.415,0.089c-0.957,0.206-1.9-0.403-2.105-1.36l-0.423-1.966
					C357.115,76.111,357.724,75.168,358.681,74.963z"/>
				<path style="fill:#FFFFFF;" d="M353.767,76.019l0.415-0.089c0.957-0.206,1.9,0.403,2.105,1.36l0.423,1.967
					c0.206,0.957-0.403,1.9-1.36,2.105l-0.415,0.089c-0.957,0.206-1.9-0.403-2.105-1.36l-0.423-1.967
					C352.201,77.168,352.81,76.225,353.767,76.019z"/>
				<path style="fill:#FFFFFF;" d="M348.852,77.076l0.415-0.089c0.957-0.206,1.9,0.403,2.105,1.36l0.423,1.967
					c0.206,0.957-0.403,1.9-1.36,2.105l-0.415,0.089c-0.957,0.206-1.9-0.403-2.105-1.36l-0.423-1.967
					C347.286,78.224,347.895,77.282,348.852,77.076z"/>
				<path style="fill:#FFFFFF;" d="M343.937,78.133l0.415-0.089c0.957-0.206,1.9,0.403,2.105,1.36l0.423,1.967
					c0.206,0.957-0.403,1.899-1.36,2.105l-0.415,0.089c-0.957,0.206-1.9-0.403-2.105-1.36l-0.423-1.967
					C342.371,79.281,342.98,78.339,343.937,78.133z"/>
				<path style="fill:#FFFFFF;" d="M339.022,79.19l0.415-0.089c0.957-0.206,1.9,0.403,2.105,1.36l0.423,1.967
					c0.206,0.957-0.403,1.899-1.36,2.105l-0.415,0.089c-0.957,0.206-1.899-0.403-2.105-1.36l-0.423-1.967
					C337.456,80.338,338.065,79.395,339.022,79.19z"/>
			</g>
		</g>
	</g>
	<g>
		<g>
			
				<linearGradient id="SVGID_00000116928376449162409650000015463128394876020666_" gradientUnits="userSpaceOnUse" x1="556.6002" y1="306.3203" x2="556.6002" y2="418.9274">
				<stop  offset="0" style="stop-color:#E4816F"/>
				<stop  offset="1" style="stop-color:#E25E52"/>
			</linearGradient>
			<path style="fill:url(#SVGID_00000116928376449162409650000015463128394876020666_);" d="M579.498,439.454h-45.796
				c-4.064,0-7.358-3.294-7.358-7.358V313.678c0-4.064,3.294-7.358,7.358-7.358h15.897c20.576,0,37.257,16.68,37.257,37.257v88.519
				C586.856,436.159,583.562,439.454,579.498,439.454z"/>
			<g>
				<path d="M540.496,440.982c-0.692,0-1.358,0.103-1.992,0.283v-1.812h-5.269v8.79c0,4.01,3.251,7.262,7.262,7.262
					s7.262-3.251,7.262-7.262C547.758,444.233,544.507,440.982,540.496,440.982z"/>
				<path d="M580.976,440.982c-0.692,0-1.358,0.103-1.992,0.283v-1.812h-5.269v8.79c0,4.01,3.251,7.262,7.262,7.262
					s7.262-3.251,7.262-7.262C588.237,444.233,584.986,440.982,580.976,440.982z"/>
			</g>
			<rect x="535.154" y="249.708" width="4.655" height="56.612"/>
			<path d="M545.999,254.714H533.98c-0.706,0-1.278-0.572-1.278-1.278v-5.042c0-0.706,0.572-1.278,1.278-1.278h12.019
				c0.706,0,1.278,0.572,1.278,1.278v5.042C547.277,254.142,546.705,254.714,545.999,254.714z"/>
			<rect x="547.079" y="306.32" width="1.156" height="126.103"/>
			<path d="M549.005,438.208h-2.696c-1.049,0-1.824-0.978-1.583-1.999l1.348-5.727c0.173-0.735,0.829-1.254,1.583-1.254h0
				c0.755,0,1.41,0.519,1.583,1.254l1.348,5.727C550.828,437.23,550.054,438.208,549.005,438.208z"/>
			
				<linearGradient id="SVGID_00000080919087106766374160000001153617710338286521_" gradientUnits="userSpaceOnUse" x1="533.7911" y1="376.0593" x2="540.6999" y2="376.0593">
				<stop  offset="0" style="stop-color:#E4816F"/>
				<stop  offset="1" style="stop-color:#E25E52"/>
			</linearGradient>
			<path style="opacity:0.5;fill:url(#SVGID_00000080919087106766374160000001153617710338286521_);" d="M537.245,431.508
				L537.245,431.508c-1.908,0-3.454-1.547-3.454-3.454V324.065c0-1.908,1.547-3.454,3.454-3.454l0,0
				c1.908,0,3.455,1.547,3.455,3.454v103.989C540.7,429.962,539.153,431.508,537.245,431.508z"/>
			
				<linearGradient id="SVGID_00000048478448767890256250000015233873891766339744_" gradientUnits="userSpaceOnUse" x1="554.7204" y1="376.0593" x2="561.6293" y2="376.0593">
				<stop  offset="0" style="stop-color:#E4816F"/>
				<stop  offset="1" style="stop-color:#E25E52"/>
			</linearGradient>
			<path style="opacity:0.5;fill:url(#SVGID_00000048478448767890256250000015233873891766339744_);" d="M558.175,431.508
				L558.175,431.508c-1.908,0-3.454-1.547-3.454-3.454V324.065c0-1.908,1.547-3.454,3.454-3.454l0,0
				c1.908,0,3.454,1.547,3.454,3.454v103.989C561.629,429.962,560.083,431.508,558.175,431.508z"/>
		</g>
		<g>
			
				<linearGradient id="SVGID_00000126294463151901158900000007488304286150227867_" gradientUnits="userSpaceOnUse" x1="201.6426" y1="503.939" x2="203.446" y2="202.7822">
				<stop  offset="0" style="stop-color:#E6832C"/>
				<stop  offset="1" style="stop-color:#E9A347"/>
			</linearGradient>
			<path style="fill:url(#SVGID_00000126294463151901158900000007488304286150227867_);" d="M252.21,448.12h-99.428
				c-4.23,0-7.659-3.429-7.659-7.659v-158.13c0-4.23,3.429-7.659,7.659-7.659h99.428c4.23,0,7.659,3.429,7.659,7.659v158.13
				C259.869,444.691,256.44,448.12,252.21,448.12z"/>
			<path d="M272.519,361.391c-0.011,0.453-0.129,11.015-4.742,13.806c-1.239,0.744-2.005,2.199-2.005,3.772
				c0,1.627-1.326,2.953-2.953,2.953h-2.953v-3.481h1.164c0.668,0,1.218-0.55,1.218-1.229c0-2.037,0.873-3.988,2.393-5.346
				c0.722-0.647,1.11-1.897,1.11-3.611v-13.72c0-1.714-0.388-2.964-1.11-3.61c-1.52-1.358-2.393-3.309-2.393-5.346
				c0-0.679-0.55-1.218-1.218-1.218h-1.164v-3.492h2.953c1.627,0,2.953,1.326,2.953,2.953c0,1.584,0.765,3.028,2.005,3.772
				C272.389,350.387,272.508,360.949,272.519,361.391z"/>
			<g>
				
					<linearGradient id="SVGID_00000058555792465504178180000005903974214459601057_" gradientUnits="userSpaceOnUse" x1="162.1839" y1="445.6311" x2="162.1839" y2="455.9786">
					<stop  offset="0" style="stop-color:#914713"/>
					<stop  offset="1" style="stop-color:#AF6145"/>
				</linearGradient>
				<polygon style="fill:url(#SVGID_00000058555792465504178180000005903974214459601057_);" points="165.761,455.505 
					158.607,455.505 156.13,448.12 168.238,448.12 				"/>
				
					<linearGradient id="SVGID_00000132805999578633757920000000112794680783940258_" gradientUnits="userSpaceOnUse" x1="242.0518" y1="445.6311" x2="242.0518" y2="455.9786">
					<stop  offset="0" style="stop-color:#914713"/>
					<stop  offset="1" style="stop-color:#AF6145"/>
				</linearGradient>
				<polygon style="fill:url(#SVGID_00000132805999578633757920000000112794680783940258_);" points="245.629,455.505 
					238.475,455.505 235.998,448.12 248.106,448.12 				"/>
			</g>
			
				<linearGradient id="SVGID_00000155141870247052675480000014074834055925140900_" gradientUnits="userSpaceOnUse" x1="142.8241" y1="303.1751" x2="254.1433" y2="303.1751">
				<stop  offset="0" style="stop-color:#914713"/>
				<stop  offset="1" style="stop-color:#AF6145"/>
			</linearGradient>
			
				<rect x="145.123" y="299.218" style="fill:url(#SVGID_00000155141870247052675480000014074834055925140900_);" width="114.746" height="7.915"/>
			
				<linearGradient id="SVGID_00000172419953094850819420000014041825989676848016_" gradientUnits="userSpaceOnUse" x1="145.888" y1="419.618" x2="260.6338" y2="419.618">
				<stop  offset="0" style="stop-color:#914713"/>
				<stop  offset="1" style="stop-color:#AF6145"/>
			</linearGradient>
			
				<rect x="145.123" y="415.661" style="fill:url(#SVGID_00000172419953094850819420000014041825989676848016_);" width="114.746" height="7.915"/>
			<rect x="259.869" y="414.027" width="3.242" height="11.182"/>
			<rect x="259.869" y="297.584" width="3.242" height="11.182"/>
			
				<linearGradient id="SVGID_00000128446578131538023440000009969079983300368775_" gradientUnits="userSpaceOnUse" x1="152.1618" y1="329.2296" x2="177.4384" y2="353.7402">
				<stop  offset="0" style="stop-color:#E6832C"/>
				<stop  offset="1" style="stop-color:#E9A347"/>
			</linearGradient>
			<polygon style="fill:url(#SVGID_00000128446578131538023440000009969079983300368775_);" points="184.23,349.144 
				174.574,360.032 149.073,337.416 158.729,326.528 			"/>
			
				<linearGradient id="SVGID_00000138542947962784712540000007952744479275749043_" gradientUnits="userSpaceOnUse" x1="191.3361" y1="371.3839" x2="216.6141" y2="395.8959" gradientTransform="matrix(0.1524 -1.2323 1.1333 0.636 -261.0536 396.6382)">
				<stop  offset="0" style="stop-color:#E6832C"/>
				<stop  offset="1" style="stop-color:#E9A347"/>
			</linearGradient>
			<polygon style="fill:url(#SVGID_00000138542947962784712540000007952744479275749043_);" points="216.453,370.202 
				227.321,389.026 197.803,406.068 186.935,387.244 			"/>
			
				<linearGradient id="SVGID_00000014608805563733207640000008206816115779392942_" gradientUnits="userSpaceOnUse" x1="224.2444" y1="353.5636" x2="208.1592" y2="328.7976">
				<stop  offset="0" style="stop-color:#E6832C"/>
				<stop  offset="1" style="stop-color:#E9A347"/>
			</linearGradient>
			
				<circle style="opacity:0.6;fill:url(#SVGID_00000014608805563733207640000008206816115779392942_);" cx="218.831" cy="345.229" r="16.979"/>
		</g>
		<g>
			<polygon points="335.752,318.067 348.694,455.514 358.97,455.514 351.183,317.046 			"/>
			
				<linearGradient id="SVGID_00000114060756015492891030000017761452015990447539_" gradientUnits="userSpaceOnUse" x1="311.1597" y1="347.2799" x2="373.9681" y2="372.365">
				<stop  offset="0" style="stop-color:#E4816F"/>
				<stop  offset="1" style="stop-color:#E25E52"/>
			</linearGradient>
			<polygon style="fill:url(#SVGID_00000114060756015492891030000017761452015990447539_);" points="296.481,350.959 
				382.672,336.043 404.577,347.78 391.479,368.325 302.662,383.684 			"/>
		</g>
	</g>
	<g>
		<g>
			
				<linearGradient id="SVGID_00000077303745719653205720000000782768474474154893_" gradientUnits="userSpaceOnUse" x1="489.9722" y1="225.3966" x2="473.9465" y2="408.8033">
				<stop  offset="0" style="stop-color:#914713"/>
				<stop  offset="1" style="stop-color:#AF6145"/>
			</linearGradient>
			<path style="fill:url(#SVGID_00000077303745719653205720000000782768474474154893_);" d="M461.49,311.614
				c0,0,1.306,21.93,1.306,27.705c1.119,20.993,9.892,92.833,10.781,92.593l19.402-1.185c0,0,2.347-87.615,2.438-93.198
				c0.199-12.227-1.023-25.915-1.023-25.915"/>
			<path d="M468.596,396.302c0.757,6.273,1.501,12.223,2.176,17.405l0-0.001c0,0,0.047,2.067-0.496,6.065
				c-0.543,3.998,0.497,4.985,0.497,4.985s-0.503,1.481-0.327,2.961c0.175,1.481,2.1,3.841,2.1,3.841h0.883
				c0.062,0.227,0.113,0.353,0.151,0.353l19.394-1.181c0,0,0.545-16.905,0.979-36.562
				C478.616,394.381,470.826,395.716,468.596,396.302z"/>
			
				<linearGradient id="SVGID_00000116218403656444017530000017430691076823673489_" gradientUnits="userSpaceOnUse" x1="444.3751" y1="225.6591" x2="428.0727" y2="412.2319">
				<stop  offset="0" style="stop-color:#914713"/>
				<stop  offset="1" style="stop-color:#AF6145"/>
			</linearGradient>
			<path style="fill:url(#SVGID_00000116218403656444017530000017430691076823673489_);" d="M420.82,313.72
				c0,0-2.342,16.314-2.605,22.895c-0.263,6.581-5.721,97.798-5.721,97.798l19.645-3.55c0,0,17.82-76.033,17.952-90.379
				c0.074-8.046,2.859-15.377,2.844-26.764"/>
			<path d="M434.504,420.6c1.523-6.673,3.616-15.955,5.777-25.903c-8.153-1.473-18.93-2.391-25.257-2.846
				c-1.312,22.189-2.533,42.562-2.533,42.562l19.494-3.524c0.053,0.063,0.105,0.074,0.154-0.026
				c0.494-1.016,2.431-2.044,2.365-4.644S434.504,420.6,434.504,420.6L434.504,420.6z"/>
			<path d="M408.717,229.791c0,0,9.668-8.532,12.597-13.928c0,0-14.869-15.136-15.874-15.136c-1.006,0-4.369,10.464-4.369,10.464"/>
			
				<linearGradient id="SVGID_00000100344284457089976650000002118263755080788885_" gradientUnits="userSpaceOnUse" x1="457.2124" y1="239.9134" x2="457.2124" y2="330.5715">
				<stop  offset="0" style="stop-color:#E6832C"/>
				<stop  offset="1" style="stop-color:#E9A347"/>
			</linearGradient>
			<path style="fill:url(#SVGID_00000100344284457089976650000002118263755080788885_);" d="M428.626,254.098
				c0,0-6.912,12.921-9.188,21.532c-1.645,6.225-5.725,45.408-5.725,45.408c3.949,1.617,30.282,7.468,42.318-0.431l0.674-30.097
				l2.306,30.265c23.99,3.435,40.254-1.569,41.702-5.665c0,0-3.612-33.84-4.08-41.554c-0.268-4.42-5.791-17.901-5.791-17.901
				L428.626,254.098z"/>
			
				<linearGradient id="SVGID_00000091016749215725479160000009087203534704736933_" gradientUnits="userSpaceOnUse" x1="460.5522" y1="135.812" x2="460.5522" y2="411.2103">
				<stop  offset="0" style="stop-color:#8AB9FD"/>
				<stop  offset="1" style="stop-color:#0056E9"/>
			</linearGradient>
			<path style="fill:url(#SVGID_00000091016749215725479160000009087203534704736933_);" d="M491.203,217.997
				c9.291-0.997,17.746-6.13,25.764-13.421c0,0-13.386-25.502-26.652-37.505c-2.764-2.501-19.359-3.606-19.313-3.202l-32.033,4.48
				c0,0-13.163,6.169-15.236,8.144c0,0-5.972,6.367-10.414,13.079c-4.442,6.712-9.18,13.622-9.18,13.622
				c4.874,11.431,12.491,19.152,22.687,23.384c-1.767,8.264-7.996,23.314-8.029,31.851c-0.025,6.46,4.937,5.731,4.937,5.731
				c4.156,4.727,5.644,6.585,9.722,8.725c34.426,18.065,65.545-2.27,65.545-2.27s-5.905-11.253-8.537-22.836
				C487.831,236.198,491.203,217.997,491.203,217.997z"/>
			
				<linearGradient id="SVGID_00000135654829688249597810000007757339435479079343_" gradientUnits="userSpaceOnUse" x1="493.0029" y1="220.9518" x2="493.0986" y2="204.9624">
				<stop  offset="0" style="stop-color:#8AB9FD"/>
				<stop  offset="1" style="stop-color:#0056E9"/>
			</linearGradient>
			<path style="fill:url(#SVGID_00000135654829688249597810000007757339435479079343_);" d="M494.842,217.393
				c-1.2,0.27-2.41,0.47-3.64,0.6l1.76-9.23L494.842,217.393z"/>
			
				<linearGradient id="SVGID_00000086657173051486504480000003650794490739211141_" gradientUnits="userSpaceOnUse" x1="432.2888" y1="200.2544" x2="432.2888" y2="262.3977">
				<stop  offset="0" style="stop-color:#8AB9FD"/>
				<stop  offset="1" style="stop-color:#0056E9"/>
			</linearGradient>
			<path style="fill:url(#SVGID_00000086657173051486504480000003650794490739211141_);" d="M438.968,206.567l-6.094,26.306
				c-2.866-0.03-5.621-0.969-7.265-1.645c0.494-1.705,0.918-3.269,1.211-4.652c0,0,3.259,0.969,4.268,0.454
				C433.793,219.896,438.756,207.051,438.968,206.567z"/>
			
				<linearGradient id="SVGID_00000090294834914076564770000015891156324152423057_" gradientUnits="userSpaceOnUse" x1="456.8076" y1="183.3586" x2="452.9578" y2="146.9335">
				<stop  offset="0" style="stop-color:#914713"/>
				<stop  offset="1" style="stop-color:#AF6145"/>
			</linearGradient>
			<path style="fill:url(#SVGID_00000090294834914076564770000015891156324152423057_);" d="M446.668,151.074
				c0,0-0.969,12.154-1.561,14.622l-6.139,2.653c0,0,2.369,17.67,15.004,17.275c12.635-0.395,17.028-21.754,17.028-21.754
				l-6.574-1.145l-3.347-12.934L446.668,151.074z"/>
			
				<linearGradient id="SVGID_00000173159766790248883850000003387833181014427281_" gradientUnits="userSpaceOnUse" x1="471.4308" y1="113.1847" x2="471.4308" y2="154.731">
				<stop  offset="0" style="stop-color:#914713"/>
				<stop  offset="1" style="stop-color:#AF6145"/>
			</linearGradient>
			<path style="fill:url(#SVGID_00000173159766790248883850000003387833181014427281_);" d="M469.93,133.41
				c1.132-1.196,5.248-2.139,6.519,0.954c2.511,6.112-3.377,14.083-8.502,12.264C463.144,144.924,467.633,135.837,469.93,133.41z"/>
			
				<linearGradient id="SVGID_00000129207812599899944730000002863695784379145116_" gradientUnits="userSpaceOnUse" x1="316.4891" y1="113.1847" x2="316.4891" y2="154.731" gradientTransform="matrix(-1 0 0 1 751.3292 0)">
				<stop  offset="0" style="stop-color:#914713"/>
				<stop  offset="1" style="stop-color:#AF6145"/>
			</linearGradient>
			<path style="fill:url(#SVGID_00000129207812599899944730000002863695784379145116_);" d="M436.341,133.41
				c-1.132-1.196-5.248-2.139-6.519,0.954c-2.511,6.112,3.377,14.083,8.502,12.264C443.127,144.924,438.638,135.837,436.341,133.41z
				"/>
			
				<linearGradient id="SVGID_00000090256043714658483670000014045809597521526452_" gradientUnits="userSpaceOnUse" x1="452.5482" y1="113.1847" x2="452.5482" y2="154.731">
				<stop  offset="0" style="stop-color:#914713"/>
				<stop  offset="1" style="stop-color:#AF6145"/>
			</linearGradient>
			<path style="fill:url(#SVGID_00000090256043714658483670000014045809597521526452_);" d="M436.105,127.548
				c-0.818,6.325-1.514,17.242,4.343,25.139c5.857,7.897,14.873,9.016,22.901,1.645c8.029-7.371,6.811-25.172,4.245-31.588
				C462.539,110.104,438.08,112.28,436.105,127.548z"/>
			<path d="M435.799,130.325c0,0-9.319-9.32-8.135-18.27c1.184-8.95,7.107,3.422,7.107,3.422s1.185-19.348,7.107-18.295
				c5.923,1.053,1.316,14.083,1.316,14.083s5.81-11.188,11.789-10.398c5.979,0.79,0,9.213,0,9.213s9.207-7.239,16.016-4.343
				c6.81,2.896-6.352,7.995-6.352,7.995s6.976,0.823,10.793,5.693c3.817,4.87-4.441,2.896-4.441,2.896s0.887,3.191,0.887,5.412
				c0,2.222-2.358,9.165-2.358,9.165l-3.565-9.165C465.965,127.734,444.592,126.351,435.799,130.325z"/>
			<g>
				
					<linearGradient id="SVGID_00000103230649204779372720000007395927820791528362_" gradientUnits="userSpaceOnUse" x1="442.232" y1="121.532" x2="442.232" y2="150.3565">
					<stop  offset="0" style="stop-color:#8AB9FD"/>
					<stop  offset="1" style="stop-color:#0056E9"/>
				</linearGradient>
				<path style="fill:url(#SVGID_00000103230649204779372720000007395927820791528362_);" d="M459.646,150.482h-34.828
					c-1.008,0-1.826-0.818-1.826-1.826v-17.749c0-1.008,0.818-1.826,1.826-1.826h34.828c1.009,0,1.826,0.818,1.826,1.826v17.749
					C461.472,149.664,460.654,150.482,459.646,150.482z"/>
				
					<linearGradient id="SVGID_00000100383587813883943490000007196426865498351541_" gradientUnits="userSpaceOnUse" x1="444.4101" y1="121.5318" x2="444.4101" y2="150.3569">
					<stop  offset="0" style="stop-color:#8AB9FD"/>
					<stop  offset="1" style="stop-color:#0056E9"/>
				</linearGradient>
				<path style="fill:url(#SVGID_00000100383587813883943490000007196426865498351541_);" d="M449.022,129.081h-9.224l0.78-2.239
					c0.268-0.77,0.994-1.285,1.809-1.285h4.045c0.815,0,1.541,0.516,1.809,1.285L449.022,129.081z"/>
				<path style="fill:#FFFFFF;" d="M447.088,129.081h-5.355l0.453-1.3c0.156-0.447,0.577-0.746,1.05-0.746h2.348
					c0.473,0,0.895,0.299,1.05,0.746L447.088,129.081z"/>
				<circle cx="444.41" cy="139.586" r="8.844"/>
				
					<linearGradient id="SVGID_00000169522447587264324850000014989863271794466179_" gradientUnits="userSpaceOnUse" x1="435.6404" y1="130.8159" x2="448.0634" y2="143.239">
					<stop  offset="0" style="stop-color:#8AB9FD"/>
					<stop  offset="1" style="stop-color:#0056E9"/>
				</linearGradient>
				<path style="fill:url(#SVGID_00000169522447587264324850000014989863271794466179_);" d="M450.391,139.586
					c0,3.303-2.678,5.981-5.981,5.981c-3.303,0-5.981-2.678-5.981-5.981c0-3.303,2.678-5.981,5.981-5.981
					C447.714,133.605,450.391,136.282,450.391,139.586z"/>
				
					<linearGradient id="SVGID_00000059294355291538349280000014949899551576084612_" gradientUnits="userSpaceOnUse" x1="445.4183" y1="128.2638" x2="461.5497" y2="144.3952">
					<stop  offset="0" style="stop-color:#8AB9FD"/>
					<stop  offset="1" style="stop-color:#0056E9"/>
				</linearGradient>
				<path style="fill:url(#SVGID_00000059294355291538349280000014949899551576084612_);" d="M457.844,149.158h-2.077
					c-0.585,0-1.058-0.474-1.058-1.058v-16.897c0-0.585,0.474-1.058,1.058-1.058h2.077c0.585,0,1.058,0.474,1.058,1.058V148.1
					C458.903,148.684,458.429,149.158,457.844,149.158z"/>
			</g>
			<g>
				<path d="M426.891,173.087c0,0,3.615,34.993,14.707,58.254c0,0-5.308,20.458,13.387,31.443
					c10.968,6.445,28.716,4.152,37.911-0.056c2.907-1.33,6.281-4.012,7.816-6.816c4.54-8.289,1.734-17.021-10.266-20.11
					c0,0-9.608-3.817-20.167-1.428c-8.125-4.583-16.813-11.709-22.196-22.593c-12.438-25.147-14.248-42.051-14.248-42.051
					L426.891,173.087z"/>
				<path style="fill:none;stroke:#FFFFFF;stroke-width:0.5;stroke-linecap:round;stroke-miterlimit:10;" d="M460.552,231.959
					c0,0,15.284,11.582,33.842,9.871"/>
				<path style="fill:#FFFFFF;" d="M491.565,242.003c0,0,0.458,1.714,0.853,6.134c0.395,4.42,3.032,4.735,4.758,3.548
					c1.579-1.086-0.099-7.079-4.539-9.732L491.565,242.003z"/>
				
					<linearGradient id="SVGID_00000069385200424980335640000001653556648028226954_" gradientUnits="userSpaceOnUse" x1="431.5375" y1="192.3778" x2="434.647" y2="201.0151">
					<stop  offset="0" style="stop-color:#E6832C"/>
					<stop  offset="1" style="stop-color:#E9A347"/>
				</linearGradient>
				<path style="fill:url(#SVGID_00000069385200424980335640000001653556648028226954_);" d="M428.495,195.887l8.514-3.282
					c0,0,0.862,2.906,1.959,5.528l-9.55,3.329C429.418,201.462,428.643,198.948,428.495,195.887z"/>
			</g>
			
				<linearGradient id="SVGID_00000068645580198845405770000002841953515356600732_" gradientUnits="userSpaceOnUse" x1="386.0038" y1="181.0432" x2="435.5656" y2="181.0432">
				<stop  offset="0" style="stop-color:#914713"/>
				<stop  offset="1" style="stop-color:#AF6145"/>
			</linearGradient>
			<path style="fill:url(#SVGID_00000068645580198845405770000002841953515356600732_);" d="M435.562,153.903
				c-0.08,0.62-1.34,1.72-2.51,1.28c-1.06-0.4-3.64-2.43-3.64-2.43l-2.27,1.18c-0.33,4.28-5.04,6.75-9.68,10.5
				c0,0-3.4,47.96-4.28,54.65c-1.99,15.27-13.95,15.27-13.95,15.27c-11.32-1.97-13.69-15.79-13.16-22.37s20.6-52.45,20.6-52.45
				s3.69-11.92,5.59-15.6c0.83-1.6,2.56-5.27,3.1-6.35c0.06-0.12,6.76-7.65,8.07-8.5c0.72-0.47,2.16-0.6,3.58-0.86
				c1.69-0.32,3.36-0.7,3.81-0.35c0.82,0.64,0.85,1.99-0.29,3.18c-0.71,0.73-3.01,1.76-3.93,2.22c-0.01,0.04-0.09,0.16-0.21,0.33
				c0,0,0,0.01-0.01,0.02c-0.71,0.99-2.83,3.64-3.37,4.26c-0.02,0.02-0.03,0.03-0.03,0.03c1.32-0.77,5.24-3.45,6.03-3.69
				c1.18-0.36,2.44,0.71,2.36,2.14c-0.04,0.82-0.52,1.76-1.72,2.61c-0.55,0.45-4.09,3.25-4.95,3.97c1.14-0.47,4.77-2.25,5.57-2.56
				c2.31-0.91,3.4,1.66,1.71,3.25c-1.69,1.58-3.67,3.06-3.67,3.06l-3.62,3.79h9.49C434.182,150.483,435.642,153.293,435.562,153.903
				z"/>
			<path d="M434.962,152.103l-10.14-1.62h9.36C434.182,150.483,434.592,151.273,434.962,152.103z"/>
			<g>
				
					<linearGradient id="SVGID_00000031181314990533993100000004763244062147180438_" gradientUnits="userSpaceOnUse" x1="419.7624" y1="141.773" x2="431.3724" y2="141.773">
					<stop  offset="0" style="stop-color:#914713"/>
					<stop  offset="1" style="stop-color:#AF6145"/>
				</linearGradient>
				<path style="opacity:0.5;fill:url(#SVGID_00000031181314990533993100000004763244062147180438_);" d="M431.372,136.363
					c-0.04,0.82-0.52,1.76-1.72,2.61c-0.55,0.45-4.09,3.25-4.95,3.97l-4.94,4.24l3.525-4.259
					C423.287,142.924,430.152,137.953,431.372,136.363z"/>
				
					<linearGradient id="SVGID_00000078031036705032324540000014997625507878992570_" gradientUnits="userSpaceOnUse" x1="418.0524" y1="138.168" x2="426.3924" y2="138.168">
					<stop  offset="0" style="stop-color:#914713"/>
					<stop  offset="1" style="stop-color:#AF6145"/>
				</linearGradient>
				<path style="opacity:0.5;fill:url(#SVGID_00000078031036705032324540000014997625507878992570_);" d="M426.392,133.603
					c0,0,0,0.01-0.01,0.02c-0.71,0.99-2.83,3.64-3.37,4.26c-0.02,0.02-0.03,0.03-0.03,0.03l-1.724,1.392l-3.206,3.428l2.471-3.869
					L426.392,133.603z"/>
			</g>
			
				<linearGradient id="SVGID_00000041284363430196540710000011109389797265582733_" gradientUnits="userSpaceOnUse" x1="500.8245" y1="221.1466" x2="443.2422" y2="265.963">
				<stop  offset="0" style="stop-color:#914713"/>
				<stop  offset="1" style="stop-color:#AF6145"/>
			</linearGradient>
			<path style="fill:url(#SVGID_00000041284363430196540710000011109389797265582733_);" d="M526.344,231.723
				c0,4.147-2.765,11.059-9.869,11.947c-6.357,0.797-18.133-2.412-27.013-5.298c-6.589-2.129-11.584-4.087-11.584-4.087
				c-2.311,2.765-7.488,3.79-7.488,3.79s-2.843,4.275-3.62,5.446c-1.06,1.574-4.361,1.299-4.361,0.098
				c0-0.727,1.615-5.146,2.22-6.781l-0.898,0.343c0,0-3.461,5.267-6.014,6.206c-2.22,0.817-3.138-0.737-3.057-1.978
				c0-0.05,0.02-0.121,0.04-0.182c-1.12,1.382-2.2,2.543-2.916,2.805c-2.654,0.969-3.961-1.001-3.501-2.26
				c0.684-1.871,3.162-6.078,5.732-9.768c-1.322,1.039-3.239,2.462-4.47,3.027c-2.038,0.918-4.531-0.656-4.097-1.877
				c0.283-0.787,4.793-5.842,5.509-6.549c0.787-0.767,5.724-2.639,5.724-2.639c-1.312-1.261-2.667-3.004-2.667-3.004l10.898-0.432
				l25.55,2.301l4.268,0.383L491.199,218c8.416-0.908,16.145-5.207,23.491-11.433C516.738,209.826,526.344,225.457,526.344,231.723z
				"/>
			<g>
				
					<linearGradient id="SVGID_00000096049032953652266260000015467085699349756329_" gradientUnits="userSpaceOnUse" x1="452.0424" y1="237.1824" x2="462.532" y2="237.1824">
					<stop  offset="0" style="stop-color:#914713"/>
					<stop  offset="1" style="stop-color:#AF6145"/>
				</linearGradient>
				<path style="opacity:0.5;fill:url(#SVGID_00000096049032953652266260000015467085699349756329_);" d="M458.752,231.963
					c1.057-0.637,2.736-1.24,3.78-1.501c-1.63,0.872-2.478,1.402-3.016,1.989c-0.818,0.892-3.453,6.032-4.013,6.942
					c-0.55,0.92-0.8,1.84-0.8,1.84c-0.99,1.22-1.96,2.28-2.66,2.67C452.272,243.473,457.778,232.55,458.752,231.963z"/>
				
					<linearGradient id="SVGID_00000090281153487478119160000011861587609874583195_" gradientUnits="userSpaceOnUse" x1="463.7319" y1="234.9552" x2="467.7167" y2="234.9552">
					<stop  offset="0" style="stop-color:#914713"/>
					<stop  offset="1" style="stop-color:#AF6145"/>
				</linearGradient>
				<path style="opacity:0.5;fill:url(#SVGID_00000090281153487478119160000011861587609874583195_);" d="M464.63,236.839
					c0,0,1.158-2.119,1.476-2.461c0.318-0.342,1.611-1.65,1.611-1.65s-0.685,0.277-2.2,1.079c-0.781,0.413-1.785,3.375-1.785,3.375
					L464.63,236.839z"/>
				
					<linearGradient id="SVGID_00000098935465957500059160000003157798198730485168_" gradientUnits="userSpaceOnUse" x1="457.3703" y1="228.5517" x2="450.2441" y2="234.0981">
					<stop  offset="0" style="stop-color:#914713"/>
					<stop  offset="1" style="stop-color:#AF6145"/>
				</linearGradient>
				<path style="opacity:0.5;fill:url(#SVGID_00000098935465957500059160000003157798198730485168_);" d="M454.015,232.006
					c0,0,1.127-1.666,1.519-1.992c0.391-0.326,4.325-2.274,4.325-2.274s-3.97,1.076-4.753,1.467s-2.7,4.031-2.7,4.031
					L454.015,232.006z"/>
			</g>
			<polygon points="494.727,223.215 518.086,225.284 492.417,219.796 			"/>
			
				<linearGradient id="SVGID_00000178918262233204833190000004236504511213035443_" gradientUnits="userSpaceOnUse" x1="404.5049" y1="450.4951" x2="404.5049" y2="414.9271">
				<stop  offset="0" style="stop-color:#E6832C"/>
				<stop  offset="1" style="stop-color:#E9A347"/>
			</linearGradient>
			<path style="fill:url(#SVGID_00000178918262233204833190000004236504511213035443_);" d="M432.139,430.864
				c0,0,1.15,7.366,1.677,10.789c0.526,3.422-1.677,11.783-1.677,11.783h-55.774c0,0-4.738-13.099,4.212-20.996
				c6.354-5.606,24.081,0.658,24.081,0.658s0-4.58-3.324-8.687c0.78-2.418,9.45-7.65,13.169-7.239
				c3.455,3.85,4.178,13.293,4.178,13.293L432.139,430.864z"/>
			
				<linearGradient id="SVGID_00000147898302569751863210000004800446983830724231_" gradientUnits="userSpaceOnUse" x1="490.0106" y1="453.9448" x2="490.0106" y2="409.0866">
				<stop  offset="0" style="stop-color:#E6832C"/>
				<stop  offset="1" style="stop-color:#E9A347"/>
			</linearGradient>
			<path style="fill:url(#SVGID_00000147898302569751863210000004800446983830724231_);" d="M502.653,428.986
				c-1.057-0.441-5.591,0.344-6.78,0.152c0.789-2.78,1.807-5.478,3.086-8.084c0,0-8.902-9.18-23.452-4.146l-0.296,14.65h-2.665
				c0,0-4.475,5.026-3.476,12.507c-0.564,2.845-0.3,5.024,0.613,9.37h21.223h8.226h11.516
				C510.649,453.435,514.499,433.922,502.653,428.986z"/>
			<path d="M375.297,448.526c0,0-0.674,0.958-0.773,2.784s1.135,4.195,1.135,4.195h58.238c0,0,3.661-7.703-0.069-11.156
				c0,0-9.948,3.259-11.429,6.714l-43.697,0.658l-1.908-3.225L375.297,448.526z"/>
			<path d="M466.689,455.505h44.158c0,0,0.938-5.066,0.79-5.578c-0.329-1.134-1.239-2.811-1.239-2.811s-11.001-0.888-13.568-0.002
				l-2.875,4.518h-23.382c0,0-1.226-5.418-1.501-7.567c0,0-1.065,1.338-1.921,3.378
				C466.294,449.483,466.689,455.505,466.689,455.505z"/>
			<path d="M494.328,429.017c0,0-14.125-0.304-18.469,11.125l6.557,1.651c0,0,1.086-10.894,15.191-12.683L494.328,429.017z"/>
			<path d="M397.301,431.099c0,0,1.276,1.05,2.789,4.67c1.514,3.619,1.25,6.712,1.25,6.712l6.252-0.526c0,0-0.538-5.079-2.934-8.857
				C404.658,433.097,401.093,430.443,397.301,431.099z"/>
			<polygon points="456.705,290.509 450.302,283.685 456.564,296.779 			"/>
			
				<linearGradient id="SVGID_00000091712174272953183520000008157747040396021386_" gradientUnits="userSpaceOnUse" x1="433.8612" y1="185.2018" x2="433.8612" y2="148.6746">
				<stop  offset="0" style="stop-color:#875FA7"/>
				<stop  offset="1" style="stop-color:#582792"/>
			</linearGradient>
			<path style="fill:url(#SVGID_00000091712174272953183520000008157747040396021386_);" d="M453.32,150.482
				c0,0,4.354,23.829-10.124,31.989c-14.478,8.16-26.931-23.904-29.927-41.098l-3.554,8.418c0,0,7.035,43.604,33.743,34.224
				c18.014-6.327,14.215-33.533,14.215-33.533H453.32z"/>
		</g>
		<g>
			<path style="fill:#1C1C23;" d="M212.848,131.253c0,0-8.856-2.441-14.687,7.696c-7.058,12.271-0.135,37.009-2.561,41.094
				c3.973,0.383,11.216-2.801,14.28-19.396c0,0,1.34,7.085-0.145,11.63c0,0,5.352-1.202,4.883-11.489
				c-0.382-8.374-3.366-20.486-0.924-22.018"/>
			<g>
				<path d="M309.761,161.336c0,0-10.085-24.971-13.149-32.478c0,0,10.388-0.966,21.447,0.286c0,0,3.97,17.959,6.304,30.44"/>
				
					<linearGradient id="SVGID_00000048487683476826221710000002080266621326125207_" gradientUnits="userSpaceOnUse" x1="316.5305" y1="171.5146" x2="313.6582" y2="135.0367" gradientTransform="matrix(0.9374 -0.3483 0.3483 0.9374 -35.1323 118.6409)">
					<stop  offset="0" style="stop-color:#E6832C"/>
					<stop  offset="1" style="stop-color:#E9A347"/>
				</linearGradient>
				<polygon style="fill:url(#SVGID_00000048487683476826221710000002080266621326125207_);" points="327.979,166.268 
					311.764,172.293 299.675,139.76 315.89,133.734 				"/>
				
					<linearGradient id="SVGID_00000125603437771514974600000002208813325121334406_" gradientUnits="userSpaceOnUse" x1="321.9618" y1="142.1496" x2="301.6638" y2="150.8624">
					<stop  offset="0" style="stop-color:#914713"/>
					<stop  offset="1" style="stop-color:#AF6145"/>
				</linearGradient>
				<polygon style="fill:url(#SVGID_00000125603437771514974600000002208813325121334406_);" points="320.045,144.916 
					303.83,150.942 302.884,148.395 319.098,142.37 				"/>
			</g>
			
				<linearGradient id="SVGID_00000001643361797395814710000013318560917560478871_" gradientUnits="userSpaceOnUse" x1="325.8794" y1="129.3054" x2="273.6979" y2="192.9975">
				<stop  offset="0" style="stop-color:#FFCBCA"/>
				<stop  offset="1" style="stop-color:#E994A8"/>
			</linearGradient>
			<path style="fill:url(#SVGID_00000001643361797395814710000013318560917560478871_);" d="M310.488,168.858l-4.565-12.285
				c0,0,2.766-6.219,2.957-8.517c0.191-2.298-1.58-3.686-2.968-1.643c-1.388,2.043-4.213,7.053-4.835,8.68
				c-0.622,1.628-3.686,7.737-3.686,7.737s-11.54,11.814-15.37,15.724c-4.218,4.305-7.083,8.345-7.083,8.345l-7.412-7.698
				l-14.402,15.512c0,0,18.24,16.371,23.89,14.843c7.991-2.161,29.106-38.234,29.106-38.234
				C308.488,170.714,310.488,168.858,310.488,168.858z"/>
			
				<linearGradient id="SVGID_00000104687534047769280840000005139100498278731165_" gradientUnits="userSpaceOnUse" x1="146.4385" y1="272.0257" x2="164.7178" y2="272.0257">
				<stop  offset="0" style="stop-color:#FFCBCA"/>
				<stop  offset="1" style="stop-color:#E994A8"/>
			</linearGradient>
			<path style="fill:url(#SVGID_00000104687534047769280840000005139100498278731165_);" d="M164.718,268.312
				c0,0-8.707,0.911-10.692,1.125c-1.556,0.168-5.582,2.606-6.016,2.721c-2.649,0.702-1.689,3.443,0.941,3.574
				c2.224,0.111,5.649-1.053,5.649-1.053h8.078L164.718,268.312z"/>
			
				<linearGradient id="SVGID_00000066481484249825957020000005649637579084802722_" gradientUnits="userSpaceOnUse" x1="304.0267" y1="481.2278" x2="272.0097" y2="268.8235">
				<stop  offset="0" style="stop-color:#FFCBCA"/>
				<stop  offset="1" style="stop-color:#E994A8"/>
			</linearGradient>
			<path style="fill:url(#SVGID_00000066481484249825957020000005649637579084802722_);" d="M310.46,304.025l-32.362-40.592h-39.201
				l4.44,19.44c0.66,0.59,1.87,1.65,3.47,3.06c6.74,5.96,10.802,14.741,31.39,27.78c-1.2,1.32-2.6,3.19-4.15,5.93
				c-3.59,6.3-8.762,20.824-13.792,31.584c-1.598,3.438-7.74,16.506-7.74,16.506l6.626,25.334c0,0,44.036-60.726,51.487-71.534
				C316.013,313.72,310.46,304.025,310.46,304.025z"/>
			
				<linearGradient id="SVGID_00000080181894066407579230000010874824587778115004_" gradientUnits="userSpaceOnUse" x1="255.2267" y1="348.3477" x2="262.5033" y2="387.4115">
				<stop  offset="0" style="stop-color:#FFCBCA"/>
				<stop  offset="1" style="stop-color:#E994A8;stop-opacity:0.5"/>
			</linearGradient>
			<path style="fill:url(#SVGID_00000080181894066407579230000010874824587778115004_);" d="M267.679,381.273
				c-5.11,7.06-8.54,11.79-8.54,11.79l-6.62-25.33c0,0,5.31-11.3,7.34-15.65C261.139,357.553,264.539,371.643,267.679,381.273z"/>
			<g>
				
					<linearGradient id="SVGID_00000143579452296965579900000011617060565456953517_" gradientUnits="userSpaceOnUse" x1="264.1362" y1="378.2142" x2="264.1362" y2="419.3333" gradientTransform="matrix(0.5555 0.8315 -0.8315 0.5555 453.2244 -56.326)">
					<stop  offset="0" style="stop-color:#875FA7"/>
					<stop  offset="1" style="stop-color:#582792"/>
				</linearGradient>
				<path style="fill:url(#SVGID_00000143579452296965579900000011617060565456953517_);" d="M261.72,373.34l-4.064-6.53
					c0.286-1.941-0.306-5.377-1.607-7.271c0,0-7.106,1.363-16.131,7.133c-2.141-0.229-4.326,1.844-6.298,4.576l34.304,51.35
					c0,0,4.404-2.198,5.034-2.688c0.289-0.225,0.439-0.938,0.492-1.245c3.111-2.267-2.353-30.321-2.423-30.317
					c-0.076,0.005,2.366-7.65,0.336-10.946C268.828,373.284,261.72,373.34,261.72,373.34z"/>
				<path d="M267.929,422.601l-34.307-51.355c1.972-2.737,4.15-4.805,6.297-4.579c0,0,1.714,3.376,0.686,7.346l27.258,40.803
					c0,0,3.931,1.366,5.587,3.844c-0.055,0.314-0.204,1.026-0.487,1.251C272.325,420.397,267.929,422.601,267.929,422.601z"/>
				<path style="fill:none;stroke:#000000;stroke-width:0.5;stroke-linecap:round;stroke-linejoin:round;stroke-miterlimit:10;" d="
					M270.533,387.355c0,0-3.189-7.833-9.093-10.852"/>
			</g>
			
				<linearGradient id="SVGID_00000138559905499060059240000018000838377179888310_" gradientUnits="userSpaceOnUse" x1="257.5404" y1="483.8802" x2="226.1361" y2="275.5404">
				<stop  offset="0" style="stop-color:#FFCBCA"/>
				<stop  offset="1" style="stop-color:#E994A8"/>
			</linearGradient>
			<path style="fill:url(#SVGID_00000138559905499060059240000018000838377179888310_);" d="M267.802,436.518l-13.115-110.465
				l-7.88-40.12l-4.42-22.5h-38.57c0.11,3.11,0.47,6.63,1.19,10.55c1.15,6.24,15.424,34.022,22.633,55.223
				c-4.76,15.34,20.11,109.28,20.11,109.28L267.802,436.518z"/>
			
				<linearGradient id="SVGID_00000033363612135441076980000000667878489311065221_" gradientUnits="userSpaceOnUse" x1="234.0574" y1="185.3014" x2="234.0574" y2="265.7273">
				<stop  offset="0" style="stop-color:#FFCBCA"/>
				<stop  offset="1" style="stop-color:#E994A8"/>
			</linearGradient>
			<path style="fill:url(#SVGID_00000033363612135441076980000000667878489311065221_);" d="M254.75,216.953v14.21
				c0,0,2.106,4.109,4.452,8.23c0,0-10.101,6.706-25.037,7.951c-14.936,1.245-25.251-3.614-25.251-3.614s0.921-3.629,1.688-8.285
				c0.702-4.262,1.276-9.383,0.898-13.369"/>
			
				<linearGradient id="SVGID_00000089553352040675449300000008049152437405848454_" gradientUnits="userSpaceOnUse" x1="264.178" y1="219.4013" x2="239.2843" y2="297.529">
				<stop  offset="0" style="stop-color:#8AB9FD"/>
				<stop  offset="1" style="stop-color:#0056E9"/>
			</linearGradient>
			<path style="fill:url(#SVGID_00000089553352040675449300000008049152437405848454_);" d="M294.006,282.889
				c-11.759,4.412-48.976,27.278-87.096,37.721c0,0-6.653-41.91-5.121-57.564c0.5-5.111,1.693-11.244,3.16-14.457
				c1.354-2.965,3.964-4.858,3.964-4.858c15.362,2.59,30.246-1.165,49.357-5.994C273.566,252.706,281.498,265.897,294.006,282.889z"
				/>
			<g>
				<defs>
					<path id="SVGID_00000083077157654542956310000013727365128919129995_" d="M294.006,282.889
						c-11.759,4.412-48.976,27.278-87.096,37.721c0,0-6.653-41.91-5.121-57.564c0.5-5.111,1.693-11.244,3.16-14.457
						c1.354-2.965,3.964-4.858,3.964-4.858c15.362,2.59,30.246-1.165,49.357-5.994C273.566,252.706,281.498,265.897,294.006,282.889
						z"/>
				</defs>
				<clipPath id="SVGID_00000031894623273506079760000016669260074244759954_">
					<use xlink:href="#SVGID_00000083077157654542956310000013727365128919129995_"  style="overflow:visible;"/>
				</clipPath>
				<g style="clip-path:url(#SVGID_00000031894623273506079760000016669260074244759954_);">
					
						<linearGradient id="SVGID_00000063607452699732925230000009669613882770350014_" gradientUnits="userSpaceOnUse" x1="220.5856" y1="236.5236" x2="189.2765" y2="271.0569">
						<stop  offset="0" style="stop-color:#8AB9FD"/>
						<stop  offset="1" style="stop-color:#0056E9"/>
					</linearGradient>
					
						<path style="fill:none;stroke:url(#SVGID_00000063607452699732925230000009669613882770350014_);stroke-width:2;stroke-miterlimit:10;" d="
						M208.913,227.739c0,0,15.928,9.443,10.653,28.03c-3.78,13.32-26.553,17.872-26.553,17.872"/>
					
						<linearGradient id="SVGID_00000109027826869166473040000017770406851066062213_" gradientUnits="userSpaceOnUse" x1="257.1807" y1="271.8859" x2="218.9111" y2="314.0964">
						<stop  offset="0" style="stop-color:#8AB9FD"/>
						<stop  offset="1" style="stop-color:#0056E9"/>
					</linearGradient>
					
						<path style="fill:none;stroke:url(#SVGID_00000109027826869166473040000017770406851066062213_);stroke-width:2;stroke-miterlimit:10;" d="
						M193.013,290.429c0,0,19.404-28.532,42.797-19.532c15.148,5.828,18.076,18.258,14.139,26.687
						c-4.063,8.7-15.374,13.181-23.936,4.526c-8.776-8.872-1.383-24.453,12.191-27.064c14.226-2.736,32.681,2.553,41.426,25.723"/>
					
						<linearGradient id="SVGID_00000106859157123096982990000013408965264083754922_" gradientUnits="userSpaceOnUse" x1="274.6782" y1="227.3983" x2="245.9712" y2="259.0616">
						<stop  offset="0" style="stop-color:#8AB9FD"/>
						<stop  offset="1" style="stop-color:#0056E9"/>
					</linearGradient>
					
						<path style="fill:none;stroke:url(#SVGID_00000106859157123096982990000013408965264083754922_);stroke-width:2;stroke-miterlimit:10;" d="
						M244.071,229.91c0,0-8.78,25.676,9.943,33.523c18.723,7.847,34.233-23.366,34.233-23.366"/>
				</g>
			</g>
			
				<linearGradient id="SVGID_00000018197926236547772130000006351504425578159789_" gradientUnits="userSpaceOnUse" x1="250.0794" y1="159.2161" x2="252.1219" y2="225.8543">
				<stop  offset="0" style="stop-color:#875FA7"/>
				<stop  offset="1" style="stop-color:#582792"/>
			</linearGradient>
			<path style="fill:url(#SVGID_00000018197926236547772130000006351504425578159789_);" d="M229.631,162.905
				c0,0,15.824-4.124,19.417-3.232c3.118,0.774,12.836,12.053,22.314,23.102c-2.511,2.981-11.867,12.946-17.356,18.119
				L229.631,162.905z"/>
			
				<linearGradient id="SVGID_00000029730020362518576190000009216941522140338613_" gradientUnits="userSpaceOnUse" x1="231.0862" y1="160.2804" x2="233.0152" y2="223.2169">
				<stop  offset="0" style="stop-color:#875FA7"/>
				<stop  offset="1" style="stop-color:#582792"/>
			</linearGradient>
			<path style="fill:url(#SVGID_00000029730020362518576190000009216941522140338613_);" d="M259.202,214.152
				c-13.97,11.09-52.003,9.451-52.003,9.451c-0.48-10.11-1.41-25.25-1.41-25.25s7.09-19.95,12.86-24.61
				c5.75-4.66,19.46-5.48,19.46-5.48s16.61,15.35,18.52,20.56C258.559,194.013,258.052,199.562,259.202,214.152z"/>
			
				<linearGradient id="SVGID_00000178204296924562907550000017816478641458815931_" gradientUnits="userSpaceOnUse" x1="151.4355" y1="229.9101" x2="213.3561" y2="229.9101">
				<stop  offset="0" style="stop-color:#FFCBCA"/>
				<stop  offset="1" style="stop-color:#E994A8"/>
			</linearGradient>
			<path style="fill:url(#SVGID_00000178204296924562907550000017816478641458815931_);" d="M201.349,176.931
				c0,0-6.264-0.065-8.359,6.148c-0.681,2.02-3.681,8.744-6.999,20.509c-6.887,24.425-16.177,61.728-16.177,61.728l-7.493,3.924
				c0,0-3.603,2.053-5.062,2.828c-0.941,0.5-5.482,6.92-5.779,7.415c-0.297,0.495,0.866,2.373,3.143,1.515
				c2.278-0.858,6.166-5.212,6.166-5.212l4.127-1.111h5.25l-0.562,1.838c0,0-2.574,2.103-3.116,3.497
				c-1.069,2.751,1.135,3.316,2.856,2.594c1.486-0.623,4.514-2.007,5.617-2.897c1.272-1.026,4.34-3.566,4.34-3.566
				s3.913-4.013,3.606-8.306c1.522-3.602,15.536-40.449,16.118-43.164c0.581-2.715,14.329-35.283,14.329-35.283L201.349,176.931z"/>
			
				<linearGradient id="SVGID_00000138548768830208031650000007031537542884740745_" gradientUnits="userSpaceOnUse" x1="214.1754" y1="189.7232" x2="206.2605" y2="221.1274">
				<stop  offset="0" style="stop-color:#875FA7"/>
				<stop  offset="1" style="stop-color:#582792"/>
			</linearGradient>
			<path style="fill:url(#SVGID_00000138548768830208031650000007031537542884740745_);" d="M216.979,191.883l-4.65,25.07
				l-5.48-0.28c-0.29-5.38-0.62-10.93-0.83-14.49L216.979,191.883z"/>
			
				<linearGradient id="SVGID_00000023277572163165832450000014944797642777998483_" gradientUnits="userSpaceOnUse" x1="203.9285" y1="159.3497" x2="206.0227" y2="227.6738">
				<stop  offset="0" style="stop-color:#875FA7"/>
				<stop  offset="1" style="stop-color:#582792"/>
			</linearGradient>
			<path style="fill:url(#SVGID_00000023277572163165832450000014944797642777998483_);" d="M196.715,165.482
				c4.165-3.447,10.712-0.951,15.255-0.511c2.01,0.195,3.844-0.129,3.844-0.129l9.026,10.524l-7.322,14.936l-7.141,20.764
				c-6.078,0.278-17.185-2.498-25.514-7.477C190.033,187.216,192.671,168.829,196.715,165.482z"/>
			
				<linearGradient id="SVGID_00000098924619396220766280000010111934615917879478_" gradientUnits="userSpaceOnUse" x1="225.0393" y1="122.3481" x2="232.4435" y2="167.2842">
				<stop  offset="0" style="stop-color:#FFCBCA"/>
				<stop  offset="1" style="stop-color:#E994A8"/>
			</linearGradient>
			<path style="fill:url(#SVGID_00000098924619396220766280000010111934615917879478_);" d="M217.742,148.591
				c-7.388-8.699-6.788-18.948-6.788-18.948c-0.071-17.287,23.738-17.218,29.248-5.569c3.603,7.617,4.91,21.001,2.977,26.02
				c-1.891,4.909-6.14,7.611-11.415,7.012l1.661,4.699c0,0,2.2-0.386,2.745-0.459c2.851,4.817,3.444,18.281-6.539,17.77
				c-9.983-0.51-13.817-14.273-13.817-14.273l3.499-1.08L217.742,148.591z"/>
			<path id="XMLID_270_" style="fill:#1C1C23;" d="M239.348,112.068c-5.815-5.43-19.973-7.384-26.619,3.813
				c-5.098,0.62-11.384,5.303-8.977,15.468c2.408,10.165,9.87,11.493,9.87,11.493s0.332-2.331,1.853-4.5
				c2.162-3.084,5.655-6.66,4.804-9.787c0.904,0.568,2.32,1.059,4.573,1.212c6.409,0.437,13.959-3.782,17.12-0.925
				c0,0,1.196-0.62,1.899-2.512C244.68,124.152,246.115,118.388,239.348,112.068z"/>
			
				<linearGradient id="XMLID_00000117673459589568025220000004436015176884346799_" gradientUnits="userSpaceOnUse" x1="210.5511" y1="124.7353" x2="217.9554" y2="169.6716">
				<stop  offset="0" style="stop-color:#FFCBCA"/>
				<stop  offset="1" style="stop-color:#E994A8"/>
			</linearGradient>
			<path id="XMLID_141_" style="fill:url(#XMLID_00000117673459589568025220000004436015176884346799_);" d="M216.293,137.715
				c0,0-4.502-3.218-6.849-0.824c-3.286,3.351,3.393,11.336,6.756,9.975C220.222,145.239,216.293,137.715,216.293,137.715z"/>
			<g>
				
					<linearGradient id="SVGID_00000094588208276501051690000006977026336024438411_" gradientUnits="userSpaceOnUse" x1="272.7813" y1="413.5902" x2="272.7813" y2="454.7076">
					<stop  offset="0" style="stop-color:#875FA7"/>
					<stop  offset="1" style="stop-color:#582792"/>
				</linearGradient>
				<path style="fill:url(#SVGID_00000094588208276501051690000006977026336024438411_);" d="M259.539,433.301l-7.688-0.248
					c-1.456-1.316-4.642-2.732-6.938-2.703c0,0-2.814,6.666-3.03,17.376c-1.38,1.653-0.87,4.621,0.307,7.779h61.754
					c0,0,0.619-4.883,0.561-5.679c-0.027-0.365-0.536-0.886-0.762-1.101c-0.157-3.846-26.52-14.886-26.555-14.825
					c-0.038,0.066-5.047-6.217-8.915-6.36C263.441,427.36,259.539,433.301,259.539,433.301z"/>
				<path d="M303.949,455.503h-61.76c-1.18-3.16-1.69-6.12-0.31-7.78c0,0,3.76,0.45,6.49,3.51h49.07c0,0,3.32-2.51,6.3-2.51
					c0.23,0.22,0.74,0.74,0.77,1.1C304.559,450.623,303.949,455.503,303.949,455.503z"/>
				<path style="fill:none;stroke:#000000;stroke-width:0.5;stroke-linecap:round;stroke-linejoin:round;stroke-miterlimit:10;" d="
					M276.087,433.759c0,0-8.285-1.699-14.074,1.533"/>
			</g>
			<path style="fill:#1C1C23;" d="M231.763,157.105c0,0-5.116-0.979-8.999-5.203c0,0,2.219,5.786,10.135,8.417L231.763,157.105z"/>
		</g>
	</g>
	<g>
		<g>
			
				<linearGradient id="SVGID_00000069360852195028590450000015669884461331076996_" gradientUnits="userSpaceOnUse" x1="516.6492" y1="137.6635" x2="533.6918" y2="158.7273">
				<stop  offset="0" style="stop-color:#8AB9FD"/>
				<stop  offset="1" style="stop-color:#0056E9"/>
			</linearGradient>
			<polygon style="fill:url(#SVGID_00000069360852195028590450000015669884461331076996_);" points="517.507,152.014 
				535.182,147.278 522.243,134.339 			"/>
			<polygon points="507.471,376.892 518.086,379.253 514.823,368.88 			"/>
			
				<linearGradient id="SVGID_00000067930174439446131160000008044624745352553094_" gradientUnits="userSpaceOnUse" x1="82.2148" y1="330.1649" x2="94.9974" y2="351.2954">
				<stop  offset="0" style="stop-color:#E4816F"/>
				<stop  offset="1" style="stop-color:#E25E52"/>
			</linearGradient>
			<polygon style="fill:url(#SVGID_00000067930174439446131160000008044624745352553094_);" points="81.59,351.315 103.925,343.871 
				86.311,328.25 			"/>
		</g>
		<g>
			
				<linearGradient id="SVGID_00000042018334963404744060000004517142138910019517_" gradientUnits="userSpaceOnUse" x1="493.381" y1="73.2767" x2="511.5725" y2="93.0002">
				<stop  offset="0" style="stop-color:#E4816F"/>
				<stop  offset="1" style="stop-color:#E25E52"/>
			</linearGradient>
			<path style="fill:url(#SVGID_00000042018334963404744060000004517142138910019517_);" d="M502.481,70.103
				c-7.2,0-13.04,5.84-13.04,13.05c0,7.2,5.84,13.04,13.04,13.04c7.21,0,13.05-5.84,13.05-13.04
				C515.531,75.943,509.691,70.103,502.481,70.103z M502.481,91.193c-4.44,0-8.04-3.6-8.04-8.04c0-4.45,3.6-8.05,8.04-8.05
				c4.45,0,8.05,3.6,8.05,8.05C510.531,87.593,506.931,91.193,502.481,91.193z"/>
			
				<linearGradient id="SVGID_00000037653349189793433990000007480703164856016522_" gradientUnits="userSpaceOnUse" x1="364.9462" y1="131.8203" x2="373.3177" y2="140.8968">
				<stop  offset="0" style="stop-color:#E4816F"/>
				<stop  offset="1" style="stop-color:#E25E52"/>
			</linearGradient>
			<path style="fill:url(#SVGID_00000037653349189793433990000007480703164856016522_);" d="M375.139,136.363
				c0,3.316-2.688,6.003-6.003,6.003c-3.315,0-6.003-2.688-6.003-6.003c0-3.316,2.688-6.003,6.003-6.003
				C372.451,130.36,375.139,133.048,375.139,136.363z"/>
			
				<linearGradient id="SVGID_00000075123399238101373910000018038684558840567182_" gradientUnits="userSpaceOnUse" x1="295.3408" y1="255.8495" x2="305.5536" y2="266.9559">
				<stop  offset="0" style="stop-color:#8AB9FD"/>
				<stop  offset="1" style="stop-color:#0056E9"/>
			</linearGradient>
			<path style="fill:url(#SVGID_00000075123399238101373910000018038684558840567182_);" d="M302.662,258.889
				c0,2.499-2.026,4.526-4.526,4.526c-2.499,0-4.526-2.026-4.526-4.526c0-2.5,2.026-4.526,4.526-4.526
				C300.635,254.363,302.662,256.389,302.662,258.889z"/>
			
				<linearGradient id="SVGID_00000102520048428201803920000006065692731742128563_" gradientUnits="userSpaceOnUse" x1="618.5959" y1="371.7731" x2="602.7778" y2="355.955">
				<stop  offset="0" style="stop-color:#E6832C"/>
				<stop  offset="1" style="stop-color:#E9A347"/>
			</linearGradient>
			<path style="fill:url(#SVGID_00000102520048428201803920000006065692731742128563_);" d="M615.988,359.539
				c0,5.316-4.31,9.626-9.626,9.626c-5.316,0-9.626-4.31-9.626-9.626c0-5.316,4.31-9.626,9.626-9.626
				C611.678,349.913,615.988,354.223,615.988,359.539z"/>
			
				<linearGradient id="SVGID_00000138562833649886095490000014026055720744881295_" gradientUnits="userSpaceOnUse" x1="318.0836" y1="408.9797" x2="327.5199" y2="419.2106">
				<stop  offset="0" style="stop-color:#E4816F"/>
				<stop  offset="1" style="stop-color:#E25E52"/>
			</linearGradient>
			<path style="fill:url(#SVGID_00000138562833649886095490000014026055720744881295_);" d="M322.807,407.333
				c-3.741,0-6.766,3.031-6.766,6.766c0,3.741,3.025,6.766,6.766,6.766c3.736,0,6.766-3.025,6.766-6.766
				C329.573,410.364,326.543,407.333,322.807,407.333z M322.807,418.826c-2.61,0-4.727-2.116-4.727-4.727
				c0-2.61,2.116-4.727,4.727-4.727c2.61,0,4.727,2.116,4.727,4.727C327.534,416.71,325.418,418.826,322.807,418.826z"/>
			<path d="M142.077,121.632c0,1.128-0.914,2.043-2.042,2.043c-1.128,0-2.043-0.915-2.043-2.043c0-1.128,0.914-2.042,2.043-2.042
				C141.162,119.589,142.077,120.504,142.077,121.632z"/>
			
				<linearGradient id="SVGID_00000148633176582069236670000002371021412270201496_" gradientUnits="userSpaceOnUse" x1="663.2808" y1="260.9462" x2="669.7584" y2="267.9691">
				<stop  offset="0" style="stop-color:#E4816F"/>
				<stop  offset="1" style="stop-color:#E25E52"/>
			</linearGradient>
			<path style="fill:url(#SVGID_00000148633176582069236670000002371021412270201496_);" d="M671.168,264.461
				c0,2.565-2.08,4.645-4.645,4.645c-2.565,0-4.645-2.08-4.645-4.645c0-2.565,2.08-4.645,4.645-4.645
				C669.088,259.816,671.168,261.896,671.168,264.461z"/>
			<path d="M621.873,100.464c0,2.359-1.912,4.272-4.272,4.272c-2.359,0-4.272-1.913-4.272-4.272c0-2.359,1.912-4.272,4.272-4.272
				C619.961,96.193,621.873,98.105,621.873,100.464z"/>
			<circle cx="471.644" cy="119.589" r="6.216"/>
			
				<linearGradient id="SVGID_00000144312088726902929130000018389765986607868080_" gradientUnits="userSpaceOnUse" x1="520.94" y1="293.1292" x2="526.0436" y2="293.1292">
				<stop  offset="0" style="stop-color:#E4816F"/>
				<stop  offset="1" style="stop-color:#E25E52"/>
			</linearGradient>
			<path style="fill:url(#SVGID_00000144312088726902929130000018389765986607868080_);" d="M526.044,293.129
				c0,1.409-1.143,2.552-2.552,2.552c-1.409,0-2.552-1.142-2.552-2.552c0-1.409,1.142-2.552,2.552-2.552
				C524.901,290.577,526.044,291.72,526.044,293.129z"/>
			<path style="fill:#FFFFFF;" d="M605.234,272.026c0,4.694-3.805,8.498-8.498,8.498c-4.693,0-8.498-3.805-8.498-8.498
				c0-4.693,3.805-8.498,8.498-8.498C601.429,263.527,605.234,267.332,605.234,272.026z"/>
			<path style="fill:#FFFFFF;" d="M613.33,244.612c0,1.444-1.171,2.615-2.615,2.615c-1.444,0-2.615-1.171-2.615-2.615
				c0-1.444,1.171-2.615,2.615-2.615C612.159,241.998,613.33,243.168,613.33,244.612z"/>
			
				<linearGradient id="SVGID_00000146491820156991193600000010829241710819815322_" gradientUnits="userSpaceOnUse" x1="389.2669" y1="140.1142" x2="396.9923" y2="147.8396">
				<stop  offset="0" style="stop-color:#8AB9FD"/>
				<stop  offset="1" style="stop-color:#0056E9"/>
			</linearGradient>
			<path style="opacity:0.15;fill:url(#SVGID_00000146491820156991193600000010829241710819815322_);" d="M396.198,143.413
				c0,2.006-1.626,3.632-3.632,3.632s-3.632-1.626-3.632-3.632c0-2.006,1.626-3.632,3.632-3.632S396.198,141.408,396.198,143.413z"
				/>
			<path style="fill:#FFFFFF;" d="M156.354,248.903c0,1.91-1.548,3.458-3.458,3.458c-1.91,0-3.458-1.548-3.458-3.458
				c0-1.91,1.548-3.458,3.458-3.458C154.806,245.445,156.354,246.993,156.354,248.903z"/>
			<path style="fill:#FFFFFF;" d="M545.818,227.739c0,1.279-1.037,2.316-2.316,2.316c-1.279,0-2.316-1.037-2.316-2.316
				c0-1.279,1.037-2.316,2.316-2.316C544.781,225.423,545.818,226.46,545.818,227.739z"/>
			<path d="M87.742,275.095c0,2.46-1.995,4.455-4.455,4.455c-2.46,0-4.455-1.995-4.455-4.455c0-2.461,1.995-4.455,4.455-4.455
				C85.747,270.639,87.742,272.634,87.742,275.095z"/>
		</g>
	</g>
	<g>
		
			<line style="fill:none;stroke:#000000;stroke-linecap:round;stroke-linejoin:round;stroke-miterlimit:10;" x1="50.643" y1="455.505" x2="699.357" y2="455.514"/>
		
			<line style="fill:none;stroke:#000000;stroke-linecap:round;stroke-linejoin:round;stroke-miterlimit:10;" x1="531.247" y1="461.912" x2="588.237" y2="461.914"/>
		
			<line style="fill:none;stroke:#000000;stroke-linecap:round;stroke-linejoin:round;stroke-miterlimit:10;" x1="375.139" y1="461.905" x2="515.354" y2="461.911"/>
		
			<line style="fill:none;stroke:#000000;stroke-linecap:round;stroke-linejoin:round;stroke-miterlimit:10;" x1="145.123" y1="461.905" x2="304.512" y2="461.914"/>
	</g>
</g>
<g id="TEXTS">
	<path id="SVGID_x5F_00000165916095592586670750000000157310925390710442_x5F_" style="fill:none;" d="M302.952,371.537
		l88.818-15.359"/>
	<text>	<textPath  xlink:href="#SVGID_x5F_00000165916095592586670750000000157310925390710442_x5F_" startOffset="0%">
<tspan  style="fill:#FFFFFF; font-family:'Montserrat-Bold'; font-size:15px;">Travelling</tspan>	</textPath>
</text>
</g>
</svg>
